<?xml version="1.0" encoding="us-ascii" standalone="no"?><svg xmlns="http://www.w3.org/2000/svg" xmlns:xlink="http://www.w3.org/1999/xlink" contentStyleType="text/css" height="285px" preserveAspectRatio="none" style="width:444px;height:285px;background:#FFFFFF;" version="1.1" viewBox="0 0 444 285" width="444px" zoomAndPan="magnify"><defs/><g><rect fill="#F1F1F1" height="102.4414" rx="5" ry="5" style="stroke:#F1F1F1;stroke-width:1.5;" width="189" x="10" y="49.2793"/><text fill="#000000" font-family="sans-serif" font-size="14" font-weight="bold" lengthAdjust="spacing" textLength="112" x="15" y="64.8145">MessageHeader</text><text fill="#000000" font-family="sans-serif" font-size="14" lengthAdjust="spacing" textLength="12" x="149" y="64.8145">&#160;&#160;&#160;</text><line style="stroke:#000000;stroke-width:1.0;" x1="144" x2="144" y1="49.2793" y2="69.7676"/><line style="stroke:#000000;stroke-width:1.0;" x1="10" x2="199" y1="69.7676" y2="69.7676"/><text fill="#000000" font-family="sans-serif" font-size="14" font-weight="bold" lengthAdjust="spacing" textLength="38" x="15" y="85.3027">Flags</text><text fill="#000000" font-family="sans-serif" font-size="14" lengthAdjust="spacing" textLength="36" x="149" y="85.3027">uint8</text><line style="stroke:#000000;stroke-width:1.0;" x1="144" x2="144" y1="69.7676" y2="90.2559"/><line style="stroke:#000000;stroke-width:1.0;" x1="10" x2="199" y1="90.2559" y2="90.2559"/><text fill="#000000" font-family="sans-serif" font-size="14" font-weight="bold" lengthAdjust="spacing" textLength="65" x="15" y="105.791">Reserved</text><text fill="#000000" font-family="sans-serif" font-size="14" lengthAdjust="spacing" textLength="45" x="149" y="105.791">uint24</text><line style="stroke:#000000;stroke-width:1.0;" x1="144" x2="144" y1="90.2559" y2="110.7441"/><line style="stroke:#000000;stroke-width:1.0;" x1="10" x2="199" y1="110.7441" y2="110.7441"/><text fill="#000000" font-family="sans-serif" font-size="14" font-weight="bold" lengthAdjust="spacing" textLength="124" x="15" y="126.2793">Length of entries</text><text fill="#000000" font-family="sans-serif" font-size="14" lengthAdjust="spacing" textLength="45" x="149" y="126.2793">uint32</text><line style="stroke:#000000;stroke-width:1.0;" x1="144" x2="144" y1="110.7441" y2="131.2324"/><line style="stroke:#000000;stroke-width:1.0;" x1="10" x2="199" y1="131.2324" y2="131.2324"/><text fill="#000000" font-family="sans-serif" font-size="14" font-weight="bold" lengthAdjust="spacing" textLength="87" x="15" y="146.7676">ServiceEntry</text><text fill="#000000" font-family="sans-serif" font-size="14" lengthAdjust="spacing" textLength="12" x="149" y="146.7676">&#160;&#160;&#160;</text><line style="stroke:#000000;stroke-width:1.0;" x1="144" x2="144" y1="131.2324" y2="151.7207"/><rect fill="none" height="102.4414" rx="5" ry="5" style="stroke:#000000;stroke-width:1.5;" width="189" x="10" y="49.2793"/><rect fill="#F1F1F1" height="40.9766" rx="5" ry="5" style="stroke:#F1F1F1;stroke-width:1.5;" width="111" x="278.5" y="10"/><text fill="#000000" font-family="sans-serif" font-size="14" lengthAdjust="spacing" textLength="96" x="283.5" y="25.5352">serviceHeader</text><line style="stroke:#000000;stroke-width:1.0;" x1="278.5" x2="389.5" y1="30.4883" y2="30.4883"/><text fill="#000000" font-family="sans-serif" font-size="14" lengthAdjust="spacing" textLength="101" x="283.5" y="46.0234">requestHeader</text><rect fill="none" height="40.9766" rx="5" ry="5" style="stroke:#000000;stroke-width:1.5;" width="111" x="278.5" y="10"/><rect fill="#F1F1F1" height="204.8828" rx="5" ry="5" style="stroke:#F1F1F1;stroke-width:1.5;" width="196" x="236" y="69"/><text fill="#000000" font-family="sans-serif" font-size="14" font-weight="bold" lengthAdjust="spacing" textLength="35" x="241" y="84.5352">Type</text><text fill="#000000" font-family="sans-serif" font-size="14" lengthAdjust="spacing" textLength="36" x="382" y="84.5352">uint8</text><line style="stroke:#000000;stroke-width:1.0;" x1="377" x2="377" y1="69" y2="89.4883"/><line style="stroke:#000000;stroke-width:1.0;" x1="236" x2="432" y1="89.4883" y2="89.4883"/><text fill="#000000" font-family="sans-serif" font-size="14" font-weight="bold" lengthAdjust="spacing" textLength="127" x="241" y="105.0234">Index 1st options</text><text fill="#000000" font-family="sans-serif" font-size="14" lengthAdjust="spacing" textLength="36" x="382" y="105.0234">uint8</text><line style="stroke:#000000;stroke-width:1.0;" x1="377" x2="377" y1="89.4883" y2="109.9766"/><line style="stroke:#000000;stroke-width:1.0;" x1="236" x2="432" y1="109.9766" y2="109.9766"/><text fill="#000000" font-family="sans-serif" font-size="14" font-weight="bold" lengthAdjust="spacing" textLength="131" x="241" y="125.5117">Index 2nd options</text><text fill="#000000" font-family="sans-serif" font-size="14" lengthAdjust="spacing" textLength="36" x="382" y="125.5117">uint8</text><line style="stroke:#000000;stroke-width:1.0;" x1="377" x2="377" y1="109.9766" y2="130.4648"/><line style="stroke:#000000;stroke-width:1.0;" x1="236" x2="432" y1="130.4648" y2="130.4648"/><text fill="#000000" font-family="sans-serif" font-size="14" font-weight="bold" lengthAdjust="spacing" textLength="61" x="241" y="146">Of opt 1</text><text fill="#000000" font-family="sans-serif" font-size="14" lengthAdjust="spacing" textLength="36" x="382" y="146">uint4</text><line style="stroke:#000000;stroke-width:1.0;" x1="377" x2="377" y1="130.4648" y2="150.9531"/><line style="stroke:#000000;stroke-width:1.0;" x1="236" x2="432" y1="150.9531" y2="150.9531"/><text fill="#000000" font-family="sans-serif" font-size="14" font-weight="bold" lengthAdjust="spacing" textLength="61" x="241" y="166.4883">Of opt 2</text><text fill="#000000" font-family="sans-serif" font-size="14" lengthAdjust="spacing" textLength="36" x="382" y="166.4883">uint4</text><line style="stroke:#000000;stroke-width:1.0;" x1="377" x2="377" y1="150.9531" y2="171.4414"/><line style="stroke:#000000;stroke-width:1.0;" x1="236" x2="432" y1="171.4414" y2="171.4414"/><text fill="#000000" font-family="sans-serif" font-size="14" font-weight="bold" lengthAdjust="spacing" textLength="69" x="241" y="186.9766">service id</text><text fill="#000000" font-family="sans-serif" font-size="14" lengthAdjust="spacing" textLength="45" x="382" y="186.9766">uint16</text><line style="stroke:#000000;stroke-width:1.0;" x1="377" x2="377" y1="171.4414" y2="191.9297"/><line style="stroke:#000000;stroke-width:1.0;" x1="236" x2="432" y1="191.9297" y2="191.9297"/><text fill="#000000" font-family="sans-serif" font-size="14" font-weight="bold" lengthAdjust="spacing" textLength="79" x="241" y="207.4648">instance id</text><text fill="#000000" font-family="sans-serif" font-size="14" lengthAdjust="spacing" textLength="45" x="382" y="207.4648">uint16</text><line style="stroke:#000000;stroke-width:1.0;" x1="377" x2="377" y1="191.9297" y2="212.418"/><line style="stroke:#000000;stroke-width:1.0;" x1="236" x2="432" y1="212.418" y2="212.418"/><text fill="#000000" font-family="sans-serif" font-size="14" font-weight="bold" lengthAdjust="spacing" textLength="100" x="241" y="227.9531">major version</text><text fill="#000000" font-family="sans-serif" font-size="14" lengthAdjust="spacing" textLength="36" x="382" y="227.9531">uint8</text><line style="stroke:#000000;stroke-width:1.0;" x1="377" x2="377" y1="212.418" y2="232.9063"/><line style="stroke:#000000;stroke-width:1.0;" x1="236" x2="432" y1="232.9063" y2="232.9063"/><text fill="#000000" font-family="sans-serif" font-size="14" font-weight="bold" lengthAdjust="spacing" textLength="17" x="241" y="248.4414">ttl</text><text fill="#000000" font-family="sans-serif" font-size="14" lengthAdjust="spacing" textLength="45" x="382" y="248.4414">uint24</text><line style="stroke:#000000;stroke-width:1.0;" x1="377" x2="377" y1="232.9063" y2="253.3945"/><line style="stroke:#000000;stroke-width:1.0;" x1="236" x2="432" y1="253.3945" y2="253.3945"/><text fill="#000000" font-family="sans-serif" font-size="14" font-weight="bold" lengthAdjust="spacing" textLength="101" x="241" y="268.9297">minor version</text><text fill="#000000" font-family="sans-serif" font-size="14" lengthAdjust="spacing" textLength="45" x="382" y="268.9297">uint32</text><line style="stroke:#000000;stroke-width:1.0;" x1="377" x2="377" y1="253.3945" y2="273.8828"/><rect fill="none" height="204.8828" rx="5" ry="5" style="stroke:#000000;stroke-width:1.5;" width="196" x="236" y="69"/><path d="M187,59.5 L200,59.5 C223.6528,59.5 249.1366,55.0991 271.4354,49.7261 " fill="none" style="stroke:#000000;stroke-width:1.0;stroke-dasharray:3.0,3.0;"/><path d="M272.1772,52.6993 L273.6653,49.1698 L270.6936,46.753 L278.8683,47.8717 L272.1772,52.6993 " fill="#000000" style="stroke:#000000;stroke-width:1.0;"/><ellipse cx="187" cy="59.5" fill="#000000" rx="3" ry="3" style="stroke:#000000;stroke-width:1.0;"/><path d="M187,141.5 L200,141.5 C209.3721,141.5 219.0263,142.2125 228.6529,143.418 " fill="none" style="stroke:#000000;stroke-width:1.0;stroke-dasharray:3.0,3.0;"/><path d="M228.2256,146.5014 L230.9655,143.7384 L229.0802,140.3345 L236.3615,144.4862 L228.2256,146.5014 " fill="#000000" style="stroke:#000000;stroke-width:1.0;"/><ellipse cx="187" cy="141.5" fill="#000000" rx="3" ry="3" style="stroke:#000000;stroke-width:1.0;"/><!--SRC=[VPBRJi9048RlzoaclO9422sLaBqY8dW8LIA76sF8QeUo16PnTzk8ndTtIrjYbB1tCz__P-VKCrPekpQAmAWjojt2n0k3EfDloDWN0_Uy28qH2TwYY55x_Dah1MNYmjFudgAnPVnoKTY66v4OZuENIh9Thym-OUx6k091M94HKc9Ne9Q0PBN4exSTL999yV70yRt7Y_8EOBhVuT-l3k2EOlm0trXGEoiLcJEgWEApgiTbZi6lO7W21YTXEJ2GnxRzpcykoUs1pWYsOgqqPAYDg-vaSTPk_esqi4hwRtKZFIY-sJTZFQGuFm76nXj1TXQDAZdupQ0LXCrsRQWb3F4L_0wqsZniyTObz2TJo76TrMx6eonm9vHgrqGiZTlVQvfFiixkHIRWAIKhjyWXZshJg0wJGPM40MLIAzgwjRFxULI8u5RPoKxPWxWJDgwaXNpzg64UiMjSYdHZdVLDnP8I3hFfiD5b8q59wcwLm-UAzLMQ7mg7_iCF]--></g></svg>