<?xml version="1.0" encoding="us-ascii" standalone="no"?><svg xmlns="http://www.w3.org/2000/svg" xmlns:xlink="http://www.w3.org/1999/xlink" contentStyleType="text/css" height="303px" preserveAspectRatio="none" style="width:400px;height:303px;background:#FFFFFF;" version="1.1" viewBox="0 0 400 303" width="400px" zoomAndPan="magnify"><defs/><g><rect fill="#F1F1F1" height="61.4648" rx="5" ry="5" style="stroke:#F1F1F1;stroke-width:1.5;" width="140" x="10" y="120"/><text fill="#000000" font-family="sans-serif" font-size="14" font-weight="bold" lengthAdjust="spacing" textLength="100" x="15" y="135.5352">ServiceHeader</text><text fill="#000000" font-family="sans-serif" font-size="14" lengthAdjust="spacing" textLength="12" x="133" y="135.5352">&#160;&#160;&#160;</text><line style="stroke:#000000;stroke-width:1.0;" x1="128" x2="128" y1="120" y2="140.4883"/><line style="stroke:#000000;stroke-width:1.0;" x1="10" x2="150" y1="140.4883" y2="140.4883"/><text fill="#000000" font-family="sans-serif" font-size="14" font-weight="bold" lengthAdjust="spacing" textLength="108" x="15" y="156.0234">RequestHeader</text><text fill="#000000" font-family="sans-serif" font-size="14" lengthAdjust="spacing" textLength="12" x="133" y="156.0234">&#160;&#160;&#160;</text><line style="stroke:#000000;stroke-width:1.0;" x1="128" x2="128" y1="140.4883" y2="160.9766"/><line style="stroke:#000000;stroke-width:1.0;" x1="10" x2="150" y1="160.9766" y2="160.9766"/><text fill="#000000" font-family="sans-serif" font-size="14" font-weight="bold" lengthAdjust="spacing" textLength="69" x="15" y="176.5117">TpHeader</text><text fill="#000000" font-family="sans-serif" font-size="14" lengthAdjust="spacing" textLength="12" x="133" y="176.5117">&#160;&#160;&#160;</text><line style="stroke:#000000;stroke-width:1.0;" x1="128" x2="128" y1="160.9766" y2="181.4648"/><rect fill="none" height="61.4648" rx="5" ry="5" style="stroke:#000000;stroke-width:1.5;" width="140" x="10" y="120"/><rect fill="#F1F1F1" height="61.4648" rx="5" ry="5" style="stroke:#F1F1F1;stroke-width:1.5;" width="134" x="220.5" y="10"/><text fill="#000000" font-family="sans-serif" font-size="14" font-weight="bold" lengthAdjust="spacing" textLength="64" x="225.5" y="25.5352">serviceId</text><text fill="#000000" font-family="sans-serif" font-size="14" lengthAdjust="spacing" textLength="45" x="304.5" y="25.5352">uint16</text><line style="stroke:#000000;stroke-width:1.0;" x1="299.5" x2="299.5" y1="10" y2="30.4883"/><line style="stroke:#000000;stroke-width:1.0;" x1="220.5" x2="354.5" y1="30.4883" y2="30.4883"/><text fill="#000000" font-family="sans-serif" font-size="14" font-weight="bold" lengthAdjust="spacing" textLength="69" x="225.5" y="46.0234">methodId</text><text fill="#000000" font-family="sans-serif" font-size="14" lengthAdjust="spacing" textLength="45" x="304.5" y="46.0234">uint16</text><line style="stroke:#000000;stroke-width:1.0;" x1="299.5" x2="299.5" y1="30.4883" y2="50.9766"/><line style="stroke:#000000;stroke-width:1.0;" x1="220.5" x2="354.5" y1="50.9766" y2="50.9766"/><text fill="#000000" font-family="sans-serif" font-size="14" font-weight="bold" lengthAdjust="spacing" textLength="46" x="225.5" y="66.5117">length</text><text fill="#000000" font-family="sans-serif" font-size="14" lengthAdjust="spacing" textLength="45" x="304.5" y="66.5117">uint32</text><line style="stroke:#000000;stroke-width:1.0;" x1="299.5" x2="299.5" y1="50.9766" y2="71.4648"/><rect fill="none" height="61.4648" rx="5" ry="5" style="stroke:#000000;stroke-width:1.5;" width="134" x="220.5" y="10"/><rect fill="#F1F1F1" height="122.9297" rx="5" ry="5" style="stroke:#F1F1F1;stroke-width:1.5;" width="183" x="196" y="89.2324"/><text fill="#000000" font-family="sans-serif" font-size="14" font-weight="bold" lengthAdjust="spacing" textLength="54" x="201" y="104.7676">clientId</text><text fill="#000000" font-family="sans-serif" font-size="14" lengthAdjust="spacing" textLength="45" x="329" y="104.7676">uint16</text><line style="stroke:#000000;stroke-width:1.0;" x1="324" x2="324" y1="89.2324" y2="109.7207"/><line style="stroke:#000000;stroke-width:1.0;" x1="196" x2="379" y1="109.7207" y2="109.7207"/><text fill="#000000" font-family="sans-serif" font-size="14" font-weight="bold" lengthAdjust="spacing" textLength="69" x="201" y="125.2559">sessionId</text><text fill="#000000" font-family="sans-serif" font-size="14" lengthAdjust="spacing" textLength="45" x="329" y="125.2559">uint16</text><line style="stroke:#000000;stroke-width:1.0;" x1="324" x2="324" y1="109.7207" y2="130.209"/><line style="stroke:#000000;stroke-width:1.0;" x1="196" x2="379" y1="130.209" y2="130.209"/><text fill="#000000" font-family="sans-serif" font-size="14" font-weight="bold" lengthAdjust="spacing" textLength="115" x="201" y="145.7441">ProtocolVersion</text><text fill="#000000" font-family="sans-serif" font-size="14" lengthAdjust="spacing" textLength="36" x="329" y="145.7441">uint8</text><line style="stroke:#000000;stroke-width:1.0;" x1="324" x2="324" y1="130.209" y2="150.6973"/><line style="stroke:#000000;stroke-width:1.0;" x1="196" x2="379" y1="150.6973" y2="150.6973"/><text fill="#000000" font-family="sans-serif" font-size="14" font-weight="bold" lengthAdjust="spacing" textLength="118" x="201" y="166.2324">InterfaceVersion</text><text fill="#000000" font-family="sans-serif" font-size="14" lengthAdjust="spacing" textLength="36" x="329" y="166.2324">uint8</text><line style="stroke:#000000;stroke-width:1.0;" x1="324" x2="324" y1="150.6973" y2="171.1855"/><line style="stroke:#000000;stroke-width:1.0;" x1="196" x2="379" y1="171.1855" y2="171.1855"/><text fill="#000000" font-family="sans-serif" font-size="14" font-weight="bold" lengthAdjust="spacing" textLength="97" x="201" y="186.7207">MessageType</text><text fill="#000000" font-family="sans-serif" font-size="14" lengthAdjust="spacing" textLength="36" x="329" y="186.7207">uint8</text><line style="stroke:#000000;stroke-width:1.0;" x1="324" x2="324" y1="171.1855" y2="191.6738"/><line style="stroke:#000000;stroke-width:1.0;" x1="196" x2="379" y1="191.6738" y2="191.6738"/><text fill="#000000" font-family="sans-serif" font-size="14" font-weight="bold" lengthAdjust="spacing" textLength="80" x="201" y="207.209">returnCode</text><text fill="#000000" font-family="sans-serif" font-size="14" lengthAdjust="spacing" textLength="36" x="329" y="207.209">uint8</text><line style="stroke:#000000;stroke-width:1.0;" x1="324" x2="324" y1="191.6738" y2="212.1621"/><rect fill="none" height="122.9297" rx="5" ry="5" style="stroke:#000000;stroke-width:1.5;" width="183" x="196" y="89.2324"/><rect fill="#F1F1F1" height="61.4648" rx="5" ry="5" style="stroke:#F1F1F1;stroke-width:1.5;" width="201" x="187" y="230"/><text fill="#000000" font-family="sans-serif" font-size="14" font-weight="bold" lengthAdjust="spacing" textLength="43" x="192" y="245.5352">offset</text><text fill="#000000" font-family="sans-serif" font-size="14" lengthAdjust="spacing" textLength="45" x="338" y="245.5352">uint28</text><line style="stroke:#000000;stroke-width:1.0;" x1="333" x2="333" y1="230" y2="250.4883"/><line style="stroke:#000000;stroke-width:1.0;" x1="187" x2="388" y1="250.4883" y2="250.4883"/><text fill="#000000" font-family="sans-serif" font-size="14" font-weight="bold" lengthAdjust="spacing" textLength="65" x="192" y="266.0234">Reserved</text><text fill="#000000" font-family="sans-serif" font-size="14" lengthAdjust="spacing" textLength="36" x="338" y="266.0234">uint3</text><line style="stroke:#000000;stroke-width:1.0;" x1="333" x2="333" y1="250.4883" y2="270.9766"/><line style="stroke:#000000;stroke-width:1.0;" x1="187" x2="388" y1="270.9766" y2="270.9766"/><text fill="#000000" font-family="sans-serif" font-size="14" font-weight="bold" lengthAdjust="spacing" textLength="136" x="192" y="286.5117">MoreSegmentsFlag</text><text fill="#000000" font-family="sans-serif" font-size="14" lengthAdjust="spacing" textLength="36" x="338" y="286.5117">uint1</text><line style="stroke:#000000;stroke-width:1.0;" x1="333" x2="333" y1="270.9766" y2="291.4648"/><rect fill="none" height="61.4648" rx="5" ry="5" style="stroke:#000000;stroke-width:1.5;" width="201" x="187" y="230"/><path d="M138,130.7324 L151,130.7324 C178.7449,130.7324 165.1499,96.8307 187,79.7324 C195.0893,73.4023 204.3312,67.9901 213.8544,63.3939 " fill="none" style="stroke:#000000;stroke-width:1.0;stroke-dasharray:3.0,3.0;"/><path d="M215.1359,66.1826 L215.9458,62.4328 L212.5728,60.6053 L220.8259,60.19 L215.1359,66.1826 " fill="#000000" style="stroke:#000000;stroke-width:1.0;"/><ellipse cx="138" cy="130.7324" fill="#000000" rx="3" ry="3" style="stroke:#000000;stroke-width:1.0;"/><path d="M138,150.7324 L151,150.7324 C163.1228,150.7324 175.8535,150.7324 188.4606,150.7324 " fill="none" style="stroke:#000000;stroke-width:1.0;stroke-dasharray:3.0,3.0;"/><path d="M188.4606,153.8633 L190.8087,150.7324 L188.4606,147.6016 L196.2877,150.7324 L188.4606,153.8633 " fill="#000000" style="stroke:#000000;stroke-width:1.0;"/><ellipse cx="138" cy="150.7324" fill="#000000" rx="3" ry="3" style="stroke:#000000;stroke-width:1.0;"/><path d="M138,170.7324 L151,170.7324 C178.7449,170.7324 165.1499,204.6342 187,221.7324 C188.7198,223.0782 190.4917,224.3825 192.3073,225.6463 " fill="none" style="stroke:#000000;stroke-width:1.0;stroke-dasharray:3.0,3.0;"/><path d="M190.6504,228.178 L194.2061,226.8889 L193.9642,223.1145 L198.6366,229.7885 L190.6504,228.178 " fill="#000000" style="stroke:#000000;stroke-width:1.0;"/><ellipse cx="138" cy="170.7324" fill="#000000" rx="3" ry="3" style="stroke:#000000;stroke-width:1.0;"/><!--SRC=[VP9TRu8m58Rl-ojEkD9a6aLd35TcJgT65YFexLBXY5sWPUs1n2t-zu5iVYmwxkZpz9o-fnqOufhUZP9WL88YVKlG61xX6wMCVJ4eFij3dOi09yX3r9O3rV8HcGfDGmiSi38XgTsp7k0i94Wx5VxXPnoZZ6XtWXtREh93fLXB_CZGqAtEGInGqjt2feWXbBpB5rgH2bIyHbrw9wj_AKqbeTxo0F-rt6fY_Zx5su96ohGSgl2IN-NqqriHrNPha4vxxAkYIondZ-TydQipAOqUHaan8ZEEUNIUmazZTc1iW38ihvwnHSmbhTmvv5LGQ3VjbjrjTcfZBM2C6sZteDLnkYsdzGX3puSIrrdjPJ7FxUBfP3f028KXBJOP5HNgRCPp3ijCaaZGWVAlvhjry4Q_Yp2IkT1AbeTaixLRIJ1HvAMAZdAlstWI1EK3H0rhbptZbcSn5Li35GePER3onuq-ctCPPSKbEF2vOqDLDD1x1uQltm00]--></g></svg>