<?xml version="1.0" encoding="us-ascii" standalone="no"?><svg xmlns="http://www.w3.org/2000/svg" xmlns:xlink="http://www.w3.org/1999/xlink" contentStyleType="text/css" height="347px" preserveAspectRatio="none" style="width:444px;height:347px;background:#FFFFFF;" version="1.1" viewBox="0 0 444 347" width="444px" zoomAndPan="magnify"><defs/><g><rect fill="#F1F1F1" height="102.4414" rx="5" ry="5" style="stroke:#F1F1F1;stroke-width:1.5;" width="189" x="10" y="65.2793"/><text fill="#000000" font-family="sans-serif" font-size="14" font-weight="bold" lengthAdjust="spacing" textLength="112" x="15" y="80.8145">MessageHeader</text><text fill="#000000" font-family="sans-serif" font-size="14" lengthAdjust="spacing" textLength="12" x="149" y="80.8145">&#160;&#160;&#160;</text><line style="stroke:#000000;stroke-width:1.0;" x1="144" x2="144" y1="65.2793" y2="85.7676"/><line style="stroke:#000000;stroke-width:1.0;" x1="10" x2="199" y1="85.7676" y2="85.7676"/><text fill="#000000" font-family="sans-serif" font-size="14" font-weight="bold" lengthAdjust="spacing" textLength="38" x="15" y="101.3027">Flags</text><text fill="#000000" font-family="sans-serif" font-size="14" lengthAdjust="spacing" textLength="36" x="149" y="101.3027">uint8</text><line style="stroke:#000000;stroke-width:1.0;" x1="144" x2="144" y1="85.7676" y2="106.2559"/><line style="stroke:#000000;stroke-width:1.0;" x1="10" x2="199" y1="106.2559" y2="106.2559"/><text fill="#000000" font-family="sans-serif" font-size="14" font-weight="bold" lengthAdjust="spacing" textLength="65" x="15" y="121.791">Reserved</text><text fill="#000000" font-family="sans-serif" font-size="14" lengthAdjust="spacing" textLength="45" x="149" y="121.791">uint24</text><line style="stroke:#000000;stroke-width:1.0;" x1="144" x2="144" y1="106.2559" y2="126.7441"/><line style="stroke:#000000;stroke-width:1.0;" x1="10" x2="199" y1="126.7441" y2="126.7441"/><text fill="#000000" font-family="sans-serif" font-size="14" font-weight="bold" lengthAdjust="spacing" textLength="124" x="15" y="142.2793">Length of entries</text><text fill="#000000" font-family="sans-serif" font-size="14" lengthAdjust="spacing" textLength="45" x="149" y="142.2793">uint32</text><line style="stroke:#000000;stroke-width:1.0;" x1="144" x2="144" y1="126.7441" y2="147.2324"/><line style="stroke:#000000;stroke-width:1.0;" x1="10" x2="199" y1="147.2324" y2="147.2324"/><text fill="#000000" font-family="sans-serif" font-size="14" font-weight="bold" lengthAdjust="spacing" textLength="119" x="15" y="162.7676">EventGroupEntry</text><text fill="#000000" font-family="sans-serif" font-size="14" lengthAdjust="spacing" textLength="12" x="149" y="162.7676">&#160;&#160;&#160;</text><line style="stroke:#000000;stroke-width:1.0;" x1="144" x2="144" y1="147.2324" y2="167.7207"/><rect fill="none" height="102.4414" rx="5" ry="5" style="stroke:#000000;stroke-width:1.5;" width="189" x="10" y="65.2793"/><rect fill="#F1F1F1" height="40.9766" rx="5" ry="5" style="stroke:#F1F1F1;stroke-width:1.5;" width="111" x="278.5" y="10"/><text fill="#000000" font-family="sans-serif" font-size="14" lengthAdjust="spacing" textLength="96" x="283.5" y="25.5352">serviceHeader</text><line style="stroke:#000000;stroke-width:1.0;" x1="278.5" x2="389.5" y1="30.4883" y2="30.4883"/><text fill="#000000" font-family="sans-serif" font-size="14" lengthAdjust="spacing" textLength="101" x="283.5" y="46.0234">requestHeader</text><rect fill="none" height="40.9766" rx="5" ry="5" style="stroke:#000000;stroke-width:1.5;" width="111" x="278.5" y="10"/><rect fill="#F1F1F1" height="266.3477" rx="5" ry="5" style="stroke:#F1F1F1;stroke-width:1.5;" width="196" x="236" y="69.3262"/><text fill="#000000" font-family="sans-serif" font-size="14" font-weight="bold" lengthAdjust="spacing" textLength="35" x="241" y="84.8613">Type</text><text fill="#000000" font-family="sans-serif" font-size="14" lengthAdjust="spacing" textLength="36" x="382" y="84.8613">uint8</text><line style="stroke:#000000;stroke-width:1.0;" x1="377" x2="377" y1="69.3262" y2="89.8145"/><line style="stroke:#000000;stroke-width:1.0;" x1="236" x2="432" y1="89.8145" y2="89.8145"/><text fill="#000000" font-family="sans-serif" font-size="14" font-weight="bold" lengthAdjust="spacing" textLength="127" x="241" y="105.3496">Index 1st options</text><text fill="#000000" font-family="sans-serif" font-size="14" lengthAdjust="spacing" textLength="36" x="382" y="105.3496">uint8</text><line style="stroke:#000000;stroke-width:1.0;" x1="377" x2="377" y1="89.8145" y2="110.3027"/><line style="stroke:#000000;stroke-width:1.0;" x1="236" x2="432" y1="110.3027" y2="110.3027"/><text fill="#000000" font-family="sans-serif" font-size="14" font-weight="bold" lengthAdjust="spacing" textLength="131" x="241" y="125.8379">Index 2nd options</text><text fill="#000000" font-family="sans-serif" font-size="14" lengthAdjust="spacing" textLength="36" x="382" y="125.8379">uint8</text><line style="stroke:#000000;stroke-width:1.0;" x1="377" x2="377" y1="110.3027" y2="130.791"/><line style="stroke:#000000;stroke-width:1.0;" x1="236" x2="432" y1="130.791" y2="130.791"/><text fill="#000000" font-family="sans-serif" font-size="14" font-weight="bold" lengthAdjust="spacing" textLength="61" x="241" y="146.3262">Of opt 1</text><text fill="#000000" font-family="sans-serif" font-size="14" lengthAdjust="spacing" textLength="36" x="382" y="146.3262">uint4</text><line style="stroke:#000000;stroke-width:1.0;" x1="377" x2="377" y1="130.791" y2="151.2793"/><line style="stroke:#000000;stroke-width:1.0;" x1="236" x2="432" y1="151.2793" y2="151.2793"/><text fill="#000000" font-family="sans-serif" font-size="14" font-weight="bold" lengthAdjust="spacing" textLength="61" x="241" y="166.8145">Of opt 2</text><text fill="#000000" font-family="sans-serif" font-size="14" lengthAdjust="spacing" textLength="36" x="382" y="166.8145">uint4</text><line style="stroke:#000000;stroke-width:1.0;" x1="377" x2="377" y1="151.2793" y2="171.7676"/><line style="stroke:#000000;stroke-width:1.0;" x1="236" x2="432" y1="171.7676" y2="171.7676"/><text fill="#000000" font-family="sans-serif" font-size="14" font-weight="bold" lengthAdjust="spacing" textLength="69" x="241" y="187.3027">service id</text><text fill="#000000" font-family="sans-serif" font-size="14" lengthAdjust="spacing" textLength="45" x="382" y="187.3027">uint16</text><line style="stroke:#000000;stroke-width:1.0;" x1="377" x2="377" y1="171.7676" y2="192.2559"/><line style="stroke:#000000;stroke-width:1.0;" x1="236" x2="432" y1="192.2559" y2="192.2559"/><text fill="#000000" font-family="sans-serif" font-size="14" font-weight="bold" lengthAdjust="spacing" textLength="79" x="241" y="207.791">instance id</text><text fill="#000000" font-family="sans-serif" font-size="14" lengthAdjust="spacing" textLength="45" x="382" y="207.791">uint16</text><line style="stroke:#000000;stroke-width:1.0;" x1="377" x2="377" y1="192.2559" y2="212.7441"/><line style="stroke:#000000;stroke-width:1.0;" x1="236" x2="432" y1="212.7441" y2="212.7441"/><text fill="#000000" font-family="sans-serif" font-size="14" font-weight="bold" lengthAdjust="spacing" textLength="100" x="241" y="228.2793">major version</text><text fill="#000000" font-family="sans-serif" font-size="14" lengthAdjust="spacing" textLength="36" x="382" y="228.2793">uint8</text><line style="stroke:#000000;stroke-width:1.0;" x1="377" x2="377" y1="212.7441" y2="233.2324"/><line style="stroke:#000000;stroke-width:1.0;" x1="236" x2="432" y1="233.2324" y2="233.2324"/><text fill="#000000" font-family="sans-serif" font-size="14" font-weight="bold" lengthAdjust="spacing" textLength="17" x="241" y="248.7676">ttl</text><text fill="#000000" font-family="sans-serif" font-size="14" lengthAdjust="spacing" textLength="45" x="382" y="248.7676">uint24</text><line style="stroke:#000000;stroke-width:1.0;" x1="377" x2="377" y1="233.2324" y2="253.7207"/><line style="stroke:#000000;stroke-width:1.0;" x1="236" x2="432" y1="253.7207" y2="253.7207"/><text fill="#000000" font-family="sans-serif" font-size="14" font-weight="bold" lengthAdjust="spacing" textLength="101" x="241" y="269.2559">minor version</text><text fill="#000000" font-family="sans-serif" font-size="14" lengthAdjust="spacing" textLength="45" x="382" y="269.2559">uint32</text><line style="stroke:#000000;stroke-width:1.0;" x1="377" x2="377" y1="253.7207" y2="274.209"/><line style="stroke:#000000;stroke-width:1.0;" x1="236" x2="432" y1="274.209" y2="274.209"/><text fill="#000000" font-family="sans-serif" font-size="14" font-weight="bold" lengthAdjust="spacing" textLength="103" x="241" y="289.7441">Reserved field</text><text fill="#000000" font-family="sans-serif" font-size="14" lengthAdjust="spacing" textLength="45" x="382" y="289.7441">uint12</text><line style="stroke:#000000;stroke-width:1.0;" x1="377" x2="377" y1="274.209" y2="294.6973"/><line style="stroke:#000000;stroke-width:1.0;" x1="236" x2="432" y1="294.6973" y2="294.6973"/><text fill="#000000" font-family="sans-serif" font-size="14" font-weight="bold" lengthAdjust="spacing" textLength="57" x="241" y="310.2324">Counter</text><text fill="#000000" font-family="sans-serif" font-size="14" lengthAdjust="spacing" textLength="36" x="382" y="310.2324">uint4</text><line style="stroke:#000000;stroke-width:1.0;" x1="377" x2="377" y1="294.6973" y2="315.1855"/><line style="stroke:#000000;stroke-width:1.0;" x1="236" x2="432" y1="315.1855" y2="315.1855"/><text fill="#000000" font-family="sans-serif" font-size="14" font-weight="bold" lengthAdjust="spacing" textLength="96" x="241" y="330.7207">EventGroupId</text><text fill="#000000" font-family="sans-serif" font-size="14" lengthAdjust="spacing" textLength="45" x="382" y="330.7207">uint16</text><line style="stroke:#000000;stroke-width:1.0;" x1="377" x2="377" y1="315.1855" y2="335.6738"/><rect fill="none" height="266.3477" rx="5" ry="5" style="stroke:#000000;stroke-width:1.5;" width="196" x="236" y="69.3262"/><path d="M187,75.5 L200,75.5 C217.3333,75.5 219.6977,66.3889 236,60.5 C247.38,56.3892 259.6301,52.3359 271.4754,48.6021 " fill="none" style="stroke:#000000;stroke-width:1.0;stroke-dasharray:3.0,3.0;"/><path d="M272.3879,51.5268 L273.6689,47.9177 L270.563,45.6774 L278.7871,46.3209 L272.3879,51.5268 " fill="#000000" style="stroke:#000000;stroke-width:1.0;"/><ellipse cx="187" cy="75.5" fill="#000000" rx="3" ry="3" style="stroke:#000000;stroke-width:1.0;"/><path d="M187,157.5 L200,157.5 C209.5502,157.5 219.2929,158.5469 228.9472,160.3213 " fill="none" style="stroke:#000000;stroke-width:1.0;stroke-dasharray:3.0,3.0;"/><path d="M228.3498,163.2657 L231.1554,160.7694 L229.5446,157.377 L236.308,161.8148 L228.3498,163.2657 " fill="#000000" style="stroke:#000000;stroke-width:1.0;"/><ellipse cx="187" cy="157.5" fill="#000000" rx="3" ry="3" style="stroke:#000000;stroke-width:1.0;"/><!--SRC=[VPDTJy8m58Rl-ojETWM96ZOc8Rqo8lWHfaR06sDCTOTPCqvdsosYyR_R3ePVXDtrlE-RFJtdzCXOeUsBKGH6BL0M3oPzm0h9PbgL1MCV3DmN96YCoF0CHOewu7U1GLt9fwQm5sXyBT7OzVb-RnKRvI8p0OUWb6JxmRfwWpwDQID4SQECaJBx36eEZa1Bt6IxKMCPUhXJ3pTqbcN0LuIrDbqM-FTljN1EARv1Q2oemaf5PeShedIdwshkPGWRCTuYHbl5TSz0RcuUzdxgajmqQ8TX8LwKXWgrSNHRuQpD_tLr5PNqFxhfwg-nm5nY_atmopDG9Lc_0LkkzpsPyv_yjU6JVJ9sX9JwLMFiEXTaPycu0OBm8Ef4yK6tDT8IHlW8OGywNHvtUESG1fCfUBdDMgVNuofogrfgrwPK6hSaZwMVLPjTY4h0ZSEJ2-JWJwrfqeR9i2d2a2gf5IqS9hkuJLOcE5DsKYXRctln_h6qCF5zq72Ri1ESYpAtBlgaKaaPXzbqjDzdOq5PwHu4X_TdLZT5BpaCBhy0]--></g></svg>