<?xml version="1.0" encoding="us-ascii" standalone="no"?><svg xmlns="http://www.w3.org/2000/svg" xmlns:xlink="http://www.w3.org/1999/xlink" contentStyleType="text/css" height="224px" preserveAspectRatio="none" style="width:382px;height:224px;background:#FFFFFF;" version="1.1" viewBox="0 0 382 224" width="382px" zoomAndPan="magnify"><defs/><g><rect fill="#F1F1F1" height="40.9766" rx="5" ry="5" style="stroke:#F1F1F1;stroke-width:1.5;" width="140" x="10" y="75.2324"/><text fill="#000000" font-family="sans-serif" font-size="14" font-weight="bold" lengthAdjust="spacing" textLength="100" x="15" y="90.7676">ServiceHeader</text><text fill="#000000" font-family="sans-serif" font-size="14" lengthAdjust="spacing" textLength="12" x="133" y="90.7676">&#160;&#160;&#160;</text><line style="stroke:#000000;stroke-width:1.0;" x1="128" x2="128" y1="75.2324" y2="95.7207"/><line style="stroke:#000000;stroke-width:1.0;" x1="10" x2="150" y1="95.7207" y2="95.7207"/><text fill="#000000" font-family="sans-serif" font-size="14" font-weight="bold" lengthAdjust="spacing" textLength="108" x="15" y="111.2559">RequestHeader</text><text fill="#000000" font-family="sans-serif" font-size="14" lengthAdjust="spacing" textLength="12" x="133" y="111.2559">&#160;&#160;&#160;</text><line style="stroke:#000000;stroke-width:1.0;" x1="128" x2="128" y1="95.7207" y2="116.209"/><rect fill="none" height="40.9766" rx="5" ry="5" style="stroke:#000000;stroke-width:1.5;" width="140" x="10" y="75.2324"/><rect fill="#F1F1F1" height="61.4648" rx="5" ry="5" style="stroke:#F1F1F1;stroke-width:1.5;" width="134" x="211.5" y="10"/><text fill="#000000" font-family="sans-serif" font-size="14" font-weight="bold" lengthAdjust="spacing" textLength="64" x="216.5" y="25.5352">serviceId</text><text fill="#000000" font-family="sans-serif" font-size="14" lengthAdjust="spacing" textLength="45" x="295.5" y="25.5352">uint16</text><line style="stroke:#000000;stroke-width:1.0;" x1="290.5" x2="290.5" y1="10" y2="30.4883"/><line style="stroke:#000000;stroke-width:1.0;" x1="211.5" x2="345.5" y1="30.4883" y2="30.4883"/><text fill="#000000" font-family="sans-serif" font-size="14" font-weight="bold" lengthAdjust="spacing" textLength="69" x="216.5" y="46.0234">methodId</text><text fill="#000000" font-family="sans-serif" font-size="14" lengthAdjust="spacing" textLength="45" x="295.5" y="46.0234">uint16</text><line style="stroke:#000000;stroke-width:1.0;" x1="290.5" x2="290.5" y1="30.4883" y2="50.9766"/><line style="stroke:#000000;stroke-width:1.0;" x1="211.5" x2="345.5" y1="50.9766" y2="50.9766"/><text fill="#000000" font-family="sans-serif" font-size="14" font-weight="bold" lengthAdjust="spacing" textLength="46" x="216.5" y="66.5117">length</text><text fill="#000000" font-family="sans-serif" font-size="14" lengthAdjust="spacing" textLength="45" x="295.5" y="66.5117">uint32</text><line style="stroke:#000000;stroke-width:1.0;" x1="290.5" x2="290.5" y1="50.9766" y2="71.4648"/><rect fill="none" height="61.4648" rx="5" ry="5" style="stroke:#000000;stroke-width:1.5;" width="134" x="211.5" y="10"/><rect fill="#F1F1F1" height="122.9297" rx="5" ry="5" style="stroke:#F1F1F1;stroke-width:1.5;" width="183" x="187" y="89.2324"/><text fill="#000000" font-family="sans-serif" font-size="14" font-weight="bold" lengthAdjust="spacing" textLength="54" x="192" y="104.7676">clientId</text><text fill="#000000" font-family="sans-serif" font-size="14" lengthAdjust="spacing" textLength="45" x="320" y="104.7676">uint16</text><line style="stroke:#000000;stroke-width:1.0;" x1="315" x2="315" y1="89.2324" y2="109.7207"/><line style="stroke:#000000;stroke-width:1.0;" x1="187" x2="370" y1="109.7207" y2="109.7207"/><text fill="#000000" font-family="sans-serif" font-size="14" font-weight="bold" lengthAdjust="spacing" textLength="69" x="192" y="125.2559">sessionId</text><text fill="#000000" font-family="sans-serif" font-size="14" lengthAdjust="spacing" textLength="45" x="320" y="125.2559">uint16</text><line style="stroke:#000000;stroke-width:1.0;" x1="315" x2="315" y1="109.7207" y2="130.209"/><line style="stroke:#000000;stroke-width:1.0;" x1="187" x2="370" y1="130.209" y2="130.209"/><text fill="#000000" font-family="sans-serif" font-size="14" font-weight="bold" lengthAdjust="spacing" textLength="115" x="192" y="145.7441">ProtocolVersion</text><text fill="#000000" font-family="sans-serif" font-size="14" lengthAdjust="spacing" textLength="36" x="320" y="145.7441">uint8</text><line style="stroke:#000000;stroke-width:1.0;" x1="315" x2="315" y1="130.209" y2="150.6973"/><line style="stroke:#000000;stroke-width:1.0;" x1="187" x2="370" y1="150.6973" y2="150.6973"/><text fill="#000000" font-family="sans-serif" font-size="14" font-weight="bold" lengthAdjust="spacing" textLength="118" x="192" y="166.2324">InterfaceVersion</text><text fill="#000000" font-family="sans-serif" font-size="14" lengthAdjust="spacing" textLength="36" x="320" y="166.2324">uint8</text><line style="stroke:#000000;stroke-width:1.0;" x1="315" x2="315" y1="150.6973" y2="171.1855"/><line style="stroke:#000000;stroke-width:1.0;" x1="187" x2="370" y1="171.1855" y2="171.1855"/><text fill="#000000" font-family="sans-serif" font-size="14" font-weight="bold" lengthAdjust="spacing" textLength="97" x="192" y="186.7207">MessageType</text><text fill="#000000" font-family="sans-serif" font-size="14" lengthAdjust="spacing" textLength="36" x="320" y="186.7207">uint8</text><line style="stroke:#000000;stroke-width:1.0;" x1="315" x2="315" y1="171.1855" y2="191.6738"/><line style="stroke:#000000;stroke-width:1.0;" x1="187" x2="370" y1="191.6738" y2="191.6738"/><text fill="#000000" font-family="sans-serif" font-size="14" font-weight="bold" lengthAdjust="spacing" textLength="80" x="192" y="207.209">returnCode</text><text fill="#000000" font-family="sans-serif" font-size="14" lengthAdjust="spacing" textLength="36" x="320" y="207.209">uint8</text><line style="stroke:#000000;stroke-width:1.0;" x1="315" x2="315" y1="191.6738" y2="212.1621"/><rect fill="none" height="122.9297" rx="5" ry="5" style="stroke:#000000;stroke-width:1.5;" width="183" x="187" y="89.2324"/><path d="M138,85.7324 L151,85.7324 C162.2925,85.7324 183.1319,79.3315 204.7107,71.3578 " fill="none" style="stroke:#000000;stroke-width:1.0;stroke-dasharray:3.0,3.0;"/><path d="M205.7659,74.1662 L206.817,70.5664 L203.6555,68.5495 L211.7316,68.7199 L205.7659,74.1662 " fill="#000000" style="stroke:#000000;stroke-width:1.0;"/><ellipse cx="138" cy="85.7324" fill="#000000" rx="3" ry="3" style="stroke:#000000;stroke-width:1.0;"/><path d="M138,105.7324 L151,105.7324 C160.5998,105.7324 170.3855,106.8889 180.0507,108.831 " fill="none" style="stroke:#000000;stroke-width:1.0;stroke-dasharray:3.0,3.0;"/><path d="M179.3979,111.776 L182.2595,109.3206 L180.7036,105.886 L187.4133,110.4632 L179.3979,111.776 " fill="#000000" style="stroke:#000000;stroke-width:1.0;"/><ellipse cx="138" cy="105.7324" fill="#000000" rx="3" ry="3" style="stroke:#000000;stroke-width:1.0;"/><!--SRC=[VP9HQy8m483VyokEFYbCgTM9z4dMwLJi4Ak-IcpFcj4cNN8jkE5_NskPoj3bBVTzoUNkCZJ4DNqO9S6e54MsJT4O7kCsL6cc94fYx9j1kQm0TI52d22FK5ikrE4pCZMQHXQuOEL2KgTlFS5LI94EAlh3hpX16TFX0hkETMQdMh6M-9cZeNkPmqIKRtnuiIch4Ke-v0kjI8KgsQ2kl8irk9Mcab3lUOZ_MdxTkDKnm_k2Higrz5Hqo-iwsOcn8Sge6WHZYuHBMljpAEfyq6axjjDhTnjZBM2CE-ZqmUwwFTkrdy4BLb3X9ckyBUQ5Kmuoro5290nfiSkflA79PhpWiCmbYHHTg7QDbT-4OFGRX94iX5OohKO-s_Yr11D5GQReBFTxhHT1KFq3rB3nsIlkUPvGUJHKaP2n2-lLk3LWSoxZlEo52ry7vgaoWJwwuBt_0000]--></g></svg>