<?xml version="1.0" encoding="us-ascii" standalone="no"?><svg xmlns="http://www.w3.org/2000/svg" xmlns:xlink="http://www.w3.org/1999/xlink" contentStyleType="text/css" height="202px" preserveAspectRatio="none" style="width:309px;height:202px;background:#FFFFFF;" version="1.1" viewBox="0 0 309 202" width="309px" zoomAndPan="magnify"><defs/><g><!--class formatter--><g id="elem_formatter"><rect codeLine="2" fill="#F1F1F1" height="80.9766" id="formatter" rx="2.5" ry="2.5" style="stroke:#181818;stroke-width:0.5;" width="295" x="7" y="115"/><ellipse cx="117.75" cy="131" fill="#ADD1B2" rx="11" ry="11" style="stroke:#181818;stroke-width:1.0;"/><path d="M120.2231,137.1431 Q119.6421,137.4419 119.0029,137.5913 Q118.3638,137.7407 117.6582,137.7407 Q115.1514,137.7407 113.8315,136.0889 Q112.5117,134.437 112.5117,131.3159 Q112.5117,128.1865 113.8315,126.5347 Q115.1514,124.8828 117.6582,124.8828 Q118.3638,124.8828 119.0112,125.0322 Q119.6587,125.1816 120.2231,125.4805 L120.2231,128.2031 Q119.5923,127.6221 118.9988,127.3523 Q118.4053,127.0825 117.7744,127.0825 Q116.4297,127.0825 115.7449,128.1492 Q115.0601,129.2158 115.0601,131.3159 Q115.0601,133.4077 115.7449,134.4744 Q116.4297,135.541 117.7744,135.541 Q118.4053,135.541 118.9988,135.2712 Q119.5923,135.0015 120.2231,134.4204 Z " fill="#000000"/><text fill="#000000" font-family="sans-serif" font-size="14" lengthAdjust="spacing" textLength="65" x="138.25" y="136.291">formatter</text><line style="stroke:#181818;stroke-width:0.5;" x1="8" x2="301" y1="147" y2="147"/><line style="stroke:#181818;stroke-width:0.5;" x1="8" x2="301" y1="155" y2="155"/><rect fill="#F24D5C" height="6" style="stroke:#C82930;stroke-width:1.0;" width="6" x="15" y="165.7441"/><text fill="#000000" font-family="sans-serif" font-size="14" lengthAdjust="spacing" textLength="265" x="27" y="172.5352">void format(log_msg, dest_buffer) = 0;</text><rect fill="#F24D5C" height="6" style="stroke:#C82930;stroke-width:1.0;" width="6" x="15" y="182.2324"/><text fill="#000000" font-family="sans-serif" font-size="14" lengthAdjust="spacing" textLength="269" x="27" y="189.0234">std::unique_ptr&lt;formater&gt; clone() = 0;</text></g><!--class pattern_format--><g id="elem_pattern_format"><rect codeLine="7" fill="#F1F1F1" height="48" id="pattern_format" rx="2.5" ry="2.5" style="stroke:#181818;stroke-width:0.5;" width="135" x="87" y="7"/><ellipse cx="102" cy="23" fill="#ADD1B2" rx="11" ry="11" style="stroke:#181818;stroke-width:1.0;"/><path d="M104.4731,29.1431 Q103.8921,29.4419 103.2529,29.5913 Q102.6138,29.7407 101.9082,29.7407 Q99.4014,29.7407 98.0815,28.0889 Q96.7617,26.437 96.7617,23.3159 Q96.7617,20.1865 98.0815,18.5347 Q99.4014,16.8828 101.9082,16.8828 Q102.6138,16.8828 103.2612,17.0322 Q103.9087,17.1816 104.4731,17.4805 L104.4731,20.2031 Q103.8423,19.6221 103.2488,19.3523 Q102.6553,19.0825 102.0244,19.0825 Q100.6797,19.0825 99.9949,20.1492 Q99.3101,21.2158 99.3101,23.3159 Q99.3101,25.4077 99.9949,26.4744 Q100.6797,27.541 102.0244,27.541 Q102.6553,27.541 103.2488,27.2712 Q103.8423,27.0015 104.4731,26.4204 Z " fill="#000000"/><text fill="#000000" font-family="sans-serif" font-size="14" lengthAdjust="spacing" textLength="103" x="116" y="28.291">pattern_format</text><line style="stroke:#181818;stroke-width:0.5;" x1="88" x2="221" y1="39" y2="39"/><line style="stroke:#181818;stroke-width:0.5;" x1="88" x2="221" y1="47" y2="47"/></g><!--reverse link pattern_format to formatter--><g id="link_pattern_format_formatter"><path codeLine="11" d="M154.5,73.33 C154.5,90.13 154.5,95.2 154.5,114.86 " fill="none" id="pattern_format-backto-formatter" style="stroke:#181818;stroke-width:1.0;"/><polygon fill="none" points="154.5,55.33,148.5,73.33,160.5,73.33,154.5,55.33" style="stroke:#181818;stroke-width:1.0;"/></g><!--SRC=[NOx12eCm44Jl-OezAZJGizh-Ih39HeIOsDsD5-s_LwDGw7Nc3Mziw9d19vfw4IHO5O269Otk2gkG1ZFnS0E7BEQLlKUguG7tjg0ihcbo7DyPpIpKdIka9zYG8bON-b7A5jLSFD6StEuxgh-msxJ-VL9V]--></g></svg>