<?xml version="1.0" encoding="us-ascii" standalone="no"?><svg xmlns="http://www.w3.org/2000/svg" xmlns:xlink="http://www.w3.org/1999/xlink" contentStyleType="text/css" height="710px" preserveAspectRatio="none" style="width:453px;height:710px;background:#FFFFFF;" version="1.1" viewBox="0 0 453 710" width="453px" zoomAndPan="magnify"><defs/><g><!--class TransportInterface--><g id="elem_TransportInterface"><rect codeLine="2" fill="#F1F1F1" height="48" id="TransportInterface" rx="2.5" ry="2.5" style="stroke:#181818;stroke-width:0.5;" width="160" x="272.5" y="439"/><ellipse cx="287.5" cy="455" fill="#B4A7E5" rx="11" ry="11" style="stroke:#181818;stroke-width:1.0;"/><path d="M283.9277,451.2651 L283.9277,449.1069 L291.3071,449.1069 L291.3071,451.2651 L288.8418,451.2651 L288.8418,459.3418 L291.3071,459.3418 L291.3071,461.5 L283.9277,461.5 L283.9277,459.3418 L286.3931,459.3418 L286.3931,451.2651 Z " fill="#000000"/><text fill="#000000" font-family="sans-serif" font-size="14" font-style="italic" lengthAdjust="spacing" textLength="128" x="301.5" y="460.291">TransportInterface</text><line style="stroke:#181818;stroke-width:0.5;" x1="273.5" x2="431.5" y1="471" y2="471"/><line style="stroke:#181818;stroke-width:0.5;" x1="273.5" x2="431.5" y1="479" y2="479"/></g><!--class TransportReceiverInterface--><g id="elem_TransportReceiverInterface"><rect codeLine="5" fill="#F1F1F1" height="48" id="TransportReceiverInterface" rx="2.5" ry="2.5" style="stroke:#181818;stroke-width:0.5;" width="217" x="7" y="331"/><ellipse cx="22" cy="347" fill="#B4A7E5" rx="11" ry="11" style="stroke:#181818;stroke-width:1.0;"/><path d="M18.4277,343.2651 L18.4277,341.1069 L25.8071,341.1069 L25.8071,343.2651 L23.3418,343.2651 L23.3418,351.3418 L25.8071,351.3418 L25.8071,353.5 L18.4277,353.5 L18.4277,351.3418 L20.8931,351.3418 L20.8931,343.2651 Z " fill="#000000"/><text fill="#000000" font-family="sans-serif" font-size="14" font-style="italic" lengthAdjust="spacing" textLength="185" x="36" y="352.291">TransportReceiverInterface</text><line style="stroke:#181818;stroke-width:0.5;" x1="8" x2="223" y1="363" y2="363"/><line style="stroke:#181818;stroke-width:0.5;" x1="8" x2="223" y1="371" y2="371"/></g><!--class MessageReceiverInterface--><g id="elem_MessageReceiverInterface"><rect codeLine="8" fill="#F1F1F1" height="48" id="MessageReceiverInterface" rx="2.5" ry="2.5" style="stroke:#181818;stroke-width:0.5;" width="208" x="39.5" y="115"/><ellipse cx="54.5" cy="131" fill="#B4A7E5" rx="11" ry="11" style="stroke:#181818;stroke-width:1.0;"/><path d="M50.9277,127.2651 L50.9277,125.1069 L58.3071,125.1069 L58.3071,127.2651 L55.8418,127.2651 L55.8418,135.3418 L58.3071,135.3418 L58.3071,137.5 L50.9277,137.5 L50.9277,135.3418 L53.3931,135.3418 L53.3931,127.2651 Z " fill="#000000"/><text fill="#000000" font-family="sans-serif" font-size="14" font-style="italic" lengthAdjust="spacing" textLength="176" x="68.5" y="136.291">MessageReceiverInterface</text><line style="stroke:#181818;stroke-width:0.5;" x1="40.5" x2="246.5" y1="147" y2="147"/><line style="stroke:#181818;stroke-width:0.5;" x1="40.5" x2="246.5" y1="155" y2="155"/></g><!--class TCPTransportInterface--><g id="elem_TCPTransportInterface"><rect codeLine="11" fill="#F1F1F1" height="48" id="TCPTransportInterface" rx="2.5" ry="2.5" style="stroke:#181818;stroke-width:0.5;" width="187" x="259" y="331"/><ellipse cx="274" cy="347" fill="#ADD1B2" rx="11" ry="11" style="stroke:#181818;stroke-width:1.0;"/><path d="M276.4731,353.1431 Q275.8921,353.4419 275.2529,353.5913 Q274.6138,353.7407 273.9082,353.7407 Q271.4014,353.7407 270.0815,352.0889 Q268.7617,350.437 268.7617,347.3159 Q268.7617,344.1865 270.0815,342.5347 Q271.4014,340.8828 273.9082,340.8828 Q274.6138,340.8828 275.2612,341.0322 Q275.9087,341.1816 276.4731,341.4805 L276.4731,344.2031 Q275.8423,343.6221 275.2488,343.3523 Q274.6553,343.0825 274.0244,343.0825 Q272.6797,343.0825 271.9949,344.1492 Q271.3101,345.2158 271.3101,347.3159 Q271.3101,349.4077 271.9949,350.4744 Q272.6797,351.541 274.0244,351.541 Q274.6553,351.541 275.2488,351.2712 Q275.8423,351.0015 276.4731,350.4204 Z " fill="#000000"/><text fill="#000000" font-family="sans-serif" font-size="14" lengthAdjust="spacing" textLength="155" x="288" y="352.291">TCPTransportInterface</text><line style="stroke:#181818;stroke-width:0.5;" x1="260" x2="445" y1="363" y2="363"/><line style="stroke:#181818;stroke-width:0.5;" x1="260" x2="445" y1="371" y2="371"/></g><!--class ReceiverResource--><g id="elem_ReceiverResource"><rect codeLine="13" fill="#F1F1F1" height="48" id="ReceiverResource" rx="2.5" ry="2.5" style="stroke:#181818;stroke-width:0.5;" width="152" x="67.5" y="223"/><ellipse cx="82.5" cy="239" fill="#ADD1B2" rx="11" ry="11" style="stroke:#181818;stroke-width:1.0;"/><path d="M84.9731,245.1431 Q84.3921,245.4419 83.7529,245.5913 Q83.1138,245.7407 82.4082,245.7407 Q79.9014,245.7407 78.5815,244.0889 Q77.2617,242.437 77.2617,239.3159 Q77.2617,236.1865 78.5815,234.5347 Q79.9014,232.8828 82.4082,232.8828 Q83.1138,232.8828 83.7612,233.0322 Q84.4087,233.1816 84.9731,233.4805 L84.9731,236.2031 Q84.3423,235.6221 83.7488,235.3523 Q83.1553,235.0825 82.5244,235.0825 Q81.1797,235.0825 80.4949,236.1492 Q79.8101,237.2158 79.8101,239.3159 Q79.8101,241.4077 80.4949,242.4744 Q81.1797,243.541 82.5244,243.541 Q83.1553,243.541 83.7488,243.2712 Q84.3423,243.0015 84.9731,242.4204 Z " fill="#000000"/><text fill="#000000" font-family="sans-serif" font-size="14" lengthAdjust="spacing" textLength="120" x="96.5" y="244.291">ReceiverResource</text><line style="stroke:#181818;stroke-width:0.5;" x1="68.5" x2="218.5" y1="255" y2="255"/><line style="stroke:#181818;stroke-width:0.5;" x1="68.5" x2="218.5" y1="263" y2="263"/></g><!--class MessageReceiver--><g id="elem_MessageReceiver"><rect codeLine="15" fill="#F1F1F1" height="48" id="MessageReceiver" rx="2.5" ry="2.5" style="stroke:#181818;stroke-width:0.5;" width="148" x="69.5" y="7"/><ellipse cx="84.5" cy="23" fill="#ADD1B2" rx="11" ry="11" style="stroke:#181818;stroke-width:1.0;"/><path d="M86.9731,29.1431 Q86.3921,29.4419 85.7529,29.5913 Q85.1138,29.7407 84.4082,29.7407 Q81.9014,29.7407 80.5815,28.0889 Q79.2617,26.437 79.2617,23.3159 Q79.2617,20.1865 80.5815,18.5347 Q81.9014,16.8828 84.4082,16.8828 Q85.1138,16.8828 85.7612,17.0322 Q86.4087,17.1816 86.9731,17.4805 L86.9731,20.2031 Q86.3423,19.6221 85.7488,19.3523 Q85.1553,19.0825 84.5244,19.0825 Q83.1797,19.0825 82.4949,20.1492 Q81.8101,21.2158 81.8101,23.3159 Q81.8101,25.4077 82.4949,26.4744 Q83.1797,27.541 84.5244,27.541 Q85.1553,27.541 85.7488,27.2712 Q86.3423,27.0015 86.9731,26.4204 Z " fill="#000000"/><text fill="#000000" font-family="sans-serif" font-size="14" lengthAdjust="spacing" textLength="116" x="98.5" y="28.291">MessageReceiver</text><line style="stroke:#181818;stroke-width:0.5;" x1="70.5" x2="216.5" y1="39" y2="39"/><line style="stroke:#181818;stroke-width:0.5;" x1="70.5" x2="216.5" y1="47" y2="47"/></g><!--class TransportFactory--><g id="elem_TransportFactory"><rect codeLine="17" fill="#F1F1F1" height="48" id="TransportFactory" rx="2.5" ry="2.5" style="stroke:#181818;stroke-width:0.5;" width="150" x="277.5" y="655"/><ellipse cx="292.5" cy="671" fill="#ADD1B2" rx="11" ry="11" style="stroke:#181818;stroke-width:1.0;"/><path d="M294.9731,677.1431 Q294.3921,677.4419 293.7529,677.5913 Q293.1138,677.7407 292.4082,677.7407 Q289.9014,677.7407 288.5815,676.0889 Q287.2617,674.437 287.2617,671.3159 Q287.2617,668.1865 288.5815,666.5347 Q289.9014,664.8828 292.4082,664.8828 Q293.1138,664.8828 293.7612,665.0322 Q294.4087,665.1816 294.9731,665.4805 L294.9731,668.2031 Q294.3423,667.6221 293.7488,667.3523 Q293.1553,667.0825 292.5244,667.0825 Q291.1797,667.0825 290.4949,668.1492 Q289.8101,669.2158 289.8101,671.3159 Q289.8101,673.4077 290.4949,674.4744 Q291.1797,675.541 292.5244,675.541 Q293.1553,675.541 293.7488,675.2712 Q294.3423,675.0015 294.9731,674.4204 Z " fill="#000000"/><text fill="#000000" font-family="sans-serif" font-size="14" lengthAdjust="spacing" textLength="118" x="306.5" y="676.291">TransportFactory</text><line style="stroke:#181818;stroke-width:0.5;" x1="278.5" x2="426.5" y1="687" y2="687"/><line style="stroke:#181818;stroke-width:0.5;" x1="278.5" x2="426.5" y1="695" y2="695"/></g><!--class Transport--><g id="elem_Transport"><rect codeLine="20" fill="#F1F1F1" height="48" id="Transport" rx="2.5" ry="2.5" style="stroke:#181818;stroke-width:0.5;" width="100" x="302.5" y="547"/><ellipse cx="317.5" cy="563" fill="#ADD1B2" rx="11" ry="11" style="stroke:#181818;stroke-width:1.0;"/><path d="M319.9731,569.1431 Q319.3921,569.4419 318.7529,569.5913 Q318.1138,569.7407 317.4082,569.7407 Q314.9014,569.7407 313.5815,568.0889 Q312.2617,566.437 312.2617,563.3159 Q312.2617,560.1865 313.5815,558.5347 Q314.9014,556.8828 317.4082,556.8828 Q318.1138,556.8828 318.7612,557.0322 Q319.4087,557.1816 319.9731,557.4805 L319.9731,560.2031 Q319.3423,559.6221 318.7488,559.3523 Q318.1553,559.0825 317.5244,559.0825 Q316.1797,559.0825 315.4949,560.1492 Q314.8101,561.2158 314.8101,563.3159 Q314.8101,565.4077 315.4949,566.4744 Q316.1797,567.541 317.5244,567.541 Q318.1553,567.541 318.7488,567.2712 Q319.3423,567.0015 319.9731,566.4204 Z " fill="#000000"/><text fill="#000000" font-family="sans-serif" font-size="14" lengthAdjust="spacing" textLength="68" x="331.5" y="568.291">Transport</text><line style="stroke:#181818;stroke-width:0.5;" x1="303.5" x2="401.5" y1="579" y2="579"/><line style="stroke:#181818;stroke-width:0.5;" x1="303.5" x2="401.5" y1="587" y2="587"/></g><!--class TCPv4Transport--><g id="elem_TCPv4Transport"><rect codeLine="22" fill="#F1F1F1" height="48" id="TCPv4Transport" rx="2.5" ry="2.5" style="stroke:#181818;stroke-width:0.5;" width="143" x="281" y="223"/><ellipse cx="296" cy="239" fill="#ADD1B2" rx="11" ry="11" style="stroke:#181818;stroke-width:1.0;"/><path d="M298.4731,245.1431 Q297.8921,245.4419 297.2529,245.5913 Q296.6138,245.7407 295.9082,245.7407 Q293.4014,245.7407 292.0815,244.0889 Q290.7617,242.437 290.7617,239.3159 Q290.7617,236.1865 292.0815,234.5347 Q293.4014,232.8828 295.9082,232.8828 Q296.6138,232.8828 297.2612,233.0322 Q297.9087,233.1816 298.4731,233.4805 L298.4731,236.2031 Q297.8423,235.6221 297.2488,235.3523 Q296.6553,235.0825 296.0244,235.0825 Q294.6797,235.0825 293.9949,236.1492 Q293.3101,237.2158 293.3101,239.3159 Q293.3101,241.4077 293.9949,242.4744 Q294.6797,243.541 296.0244,243.541 Q296.6553,243.541 297.2488,243.2712 Q297.8423,243.0015 298.4731,242.4204 Z " fill="#000000"/><text fill="#000000" font-family="sans-serif" font-size="14" lengthAdjust="spacing" textLength="111" x="310" y="244.291">TCPv4Transport</text><line style="stroke:#181818;stroke-width:0.5;" x1="282" x2="423" y1="255" y2="255"/><line style="stroke:#181818;stroke-width:0.5;" x1="282" x2="423" y1="263" y2="263"/></g><!--link MessageReceiver to MessageReceiverInterface--><g id="link_MessageReceiver_MessageReceiverInterface"><path codeLine="24" d="M143.5,55.26 C143.5,72.94 143.5,79.13 143.5,96.79 " fill="none" id="MessageReceiver-to-MessageReceiverInterface" style="stroke:#181818;stroke-width:1.0;"/><polygon fill="none" points="143.5,114.79,149.5,96.79,137.5,96.79,143.5,114.79" style="stroke:#181818;stroke-width:1.0;"/></g><!--link TCPTransportInterface to TransportInterface--><g id="link_TCPTransportInterface_TransportInterface"><path codeLine="26" d="M352.5,379.26 C352.5,396.94 352.5,403.13 352.5,420.79 " fill="none" id="TCPTransportInterface-to-TransportInterface" style="stroke:#181818;stroke-width:1.0;"/><polygon fill="none" points="352.5,438.79,358.5,420.79,346.5,420.79,352.5,438.79" style="stroke:#181818;stroke-width:1.0;"/></g><!--link ReceiverResource to TransportReceiverInterface--><g id="link_ReceiverResource_TransportReceiverInterface"><path codeLine="28" d="M137.36,271.26 C132.69,288.94 130.9017,295.7282 126.2317,313.3882 " fill="none" id="ReceiverResource-to-TransportReceiverInterface" style="stroke:#181818;stroke-width:1.0;"/><polygon fill="none" points="121.63,330.79,132.0323,314.9221,120.4311,311.8542,121.63,330.79" style="stroke:#181818;stroke-width:1.0;"/></g><!--link TCPv4Transport to TCPTransportInterface--><g id="link_TCPv4Transport_TCPTransportInterface"><path codeLine="30" d="M352.5,271.26 C352.5,288.94 352.5,295.13 352.5,312.79 " fill="none" id="TCPv4Transport-to-TCPTransportInterface" style="stroke:#181818;stroke-width:1.0;"/><polygon fill="none" points="352.5,330.79,358.5,312.79,346.5,312.79,352.5,330.79" style="stroke:#181818;stroke-width:1.0;"/></g><!--link Transport to TransportFactory--><g id="link_Transport_TransportFactory"><path codeLine="32" d="M352.5,595.26 C352.5,612.94 352.5,625.13 352.5,642.79 " fill="none" id="Transport-to-TransportFactory" style="stroke:#181818;stroke-width:1.0;"/><polygon fill="#181818" points="352.5,654.79,356.5,648.79,352.5,642.79,348.5,648.79,352.5,654.79" style="stroke:#181818;stroke-width:1.0;"/><text fill="#000000" font-family="sans-serif" font-size="13" lengthAdjust="spacing" textLength="8" x="343.525" y="615.6077">n</text><text fill="#000000" font-family="sans-serif" font-size="13" lengthAdjust="spacing" textLength="8" x="343.475" y="644.2725">1</text></g><!--link TransportInterface to Transport--><g id="link_TransportInterface_Transport"><path codeLine="34" d="M352.5,487.26 C352.5,504.94 352.5,517.13 352.5,534.79 " fill="none" id="TransportInterface-to-Transport" style="stroke:#181818;stroke-width:1.0;"/><polygon fill="#181818" points="352.5,546.79,356.5,540.79,352.5,534.79,348.5,540.79,352.5,546.79" style="stroke:#181818;stroke-width:1.0;"/><text fill="#000000" font-family="sans-serif" font-size="13" lengthAdjust="spacing" textLength="8" x="343.525" y="507.6077">1</text><text fill="#000000" font-family="sans-serif" font-size="13" lengthAdjust="spacing" textLength="8" x="343.475" y="536.2725">1</text></g><!--link ReceiverResource to TCPTransportInterface--><g id="link_ReceiverResource_TCPTransportInterface"><path codeLine="36" d="M189.62,271.39 C224.37,289.01 261.0785,307.6306 295.7885,325.2406 " fill="none" id="ReceiverResource-to-TCPTransportInterface" style="stroke:#181818;stroke-width:1.0;"/><polygon fill="#181818" points="306.49,330.67,302.949,324.3882,295.7885,325.2406,299.3295,331.5225,306.49,330.67" style="stroke:#181818;stroke-width:1.0;"/><text fill="#000000" font-family="sans-serif" font-size="13" lengthAdjust="spacing" textLength="8" x="191.3603" y="291.3688">n</text><text fill="#000000" font-family="sans-serif" font-size="13" lengthAdjust="spacing" textLength="8" x="285.6749" y="320.1217">1</text></g><!--link MessageReceiverInterface to ReceiverResource--><g id="link_MessageReceiverInterface_ReceiverResource"><path codeLine="39" d="M143.5,163.26 C143.5,180.94 143.5,193.13 143.5,210.79 " fill="none" id="MessageReceiverInterface-to-ReceiverResource" style="stroke:#181818;stroke-width:1.0;"/><polygon fill="#181818" points="143.5,222.79,147.5,216.79,143.5,210.79,139.5,216.79,143.5,222.79" style="stroke:#181818;stroke-width:1.0;"/><text fill="#000000" font-family="sans-serif" font-size="13" lengthAdjust="spacing" textLength="8" x="134.525" y="183.6077">1</text><text fill="#000000" font-family="sans-serif" font-size="13" lengthAdjust="spacing" textLength="8" x="134.475" y="212.2725">1</text></g><!--SRC=[oymhIIrAIqnELGWfIimhBiWlAl642N6fApnTD-zvtmQ5qfG2_PBa0ltYZ5o5vsixd-nPy6BVvAUz_I_MhUFYoiGq8YWrEJMpBBK8sQWNonU_Q5Y6hFNff9udEsOzxLhuT6CJiZ6-gSN5YUcfs0nvrhNtnSQ5J-VlUhvnz_izFS-dh7YogmygsBvBeGYgHU7vh9QN3RjVx9l8nPMSarXSh13Y7835Wr19c4r1gSNvfKK8SJI7mCs26UIMc5oINrG92gVUgK_sTIiKP-QbvwHYg4DoH9a9aYYQ-GgwkZLsk7tFXTKF44tO_8RkApILs2r0SXzKFVQ0GwXIobFIrTLICbJ231SkBCu5AaHNZiMfI8PYjLzT0PWSIs3YYAJpRCPwO9fG03liQS-kfnrjJtRqFftG0qmFyCHH1BC4A8WH1zWSYf4y0000]--></g></svg>