<?xml version="1.0" encoding="us-ascii" standalone="no"?><svg xmlns="http://www.w3.org/2000/svg" xmlns:xlink="http://www.w3.org/1999/xlink" contentStyleType="text/css" height="156px" preserveAspectRatio="none" style="width:902px;height:156px;background:#FFFFFF;" version="1.1" viewBox="0 0 902 156" width="902px" zoomAndPan="magnify"><defs/><g><rect fill="#F1F1F1" height="81.9531" rx="5" ry="5" style="stroke:#F1F1F1;stroke-width:1.5;" width="147" x="10" y="36.2441"/><text fill="#000000" font-family="sans-serif" font-size="14" font-weight="bold" lengthAdjust="spacing" textLength="111" x="15" y="51.7793">EndiannessFlag</text><text fill="#000000" font-family="sans-serif" font-size="14" lengthAdjust="spacing" textLength="12" x="140" y="51.7793">&#160;&#160;&#160;</text><line style="stroke:#000000;stroke-width:1.0;" x1="135" x2="135" y1="36.2441" y2="56.7324"/><line style="stroke:#000000;stroke-width:1.0;" x1="10" x2="157" y1="56.7324" y2="56.7324"/><text fill="#000000" font-family="sans-serif" font-size="14" font-weight="bold" lengthAdjust="spacing" textLength="115" x="15" y="72.2676">protocolVersion</text><text fill="#000000" font-family="sans-serif" font-size="14" lengthAdjust="spacing" textLength="12" x="140" y="72.2676">&#160;&#160;&#160;</text><line style="stroke:#000000;stroke-width:1.0;" x1="135" x2="135" y1="56.7324" y2="77.2207"/><line style="stroke:#000000;stroke-width:1.0;" x1="10" x2="157" y1="77.2207" y2="77.2207"/><text fill="#000000" font-family="sans-serif" font-size="14" font-weight="bold" lengthAdjust="spacing" textLength="63" x="15" y="92.7559">vendorid</text><text fill="#000000" font-family="sans-serif" font-size="14" lengthAdjust="spacing" textLength="12" x="140" y="92.7559">&#160;&#160;&#160;</text><line style="stroke:#000000;stroke-width:1.0;" x1="135" x2="135" y1="77.2207" y2="97.709"/><line style="stroke:#000000;stroke-width:1.0;" x1="10" x2="157" y1="97.709" y2="97.709"/><text fill="#000000" font-family="sans-serif" font-size="14" font-weight="bold" lengthAdjust="spacing" textLength="81" x="15" y="113.2441">guid_prefix</text><text fill="#000000" font-family="sans-serif" font-size="14" lengthAdjust="spacing" textLength="12" x="140" y="113.2441">&#160;&#160;&#160;</text><line style="stroke:#000000;stroke-width:1.0;" x1="135" x2="135" y1="97.709" y2="118.1973"/><rect fill="none" height="81.9531" rx="5" ry="5" style="stroke:#000000;stroke-width:1.5;" width="147" x="10" y="36.2441"/><rect fill="#F1F1F1" height="20.4883" rx="5" ry="5" style="stroke:#F1F1F1;stroke-width:1.5;" width="183" x="450.5" y="10"/><text fill="#000000" font-family="sans-serif" font-size="14" lengthAdjust="spacing" textLength="173" x="455.5" y="25.5352">1 &#20010;&#23383;&#33410;,&#34920;&#31034;&#22823;&#23567;&#31471;&#30340; flag</text><rect fill="none" height="20.4883" rx="5" ry="5" style="stroke:#000000;stroke-width:1.5;" width="183" x="450.5" y="10"/><rect fill="#F1F1F1" height="20.4883" rx="5" ry="5" style="stroke:#F1F1F1;stroke-width:1.5;" width="167" x="458.5" y="48"/><text fill="#000000" font-family="sans-serif" font-size="14" lengthAdjust="spacing" textLength="157" x="463.5" y="63.5352">2 &#20010;&#23383;&#33410;,&#34920;&#31034;&#21327;&#35758;&#30340;&#29256;&#26412;</text><rect fill="none" height="20.4883" rx="5" ry="5" style="stroke:#000000;stroke-width:1.5;" width="167" x="458.5" y="48"/><rect fill="#F1F1F1" height="20.4883" rx="5" ry="5" style="stroke:#F1F1F1;stroke-width:1.5;" width="261" x="411.5" y="86"/><text fill="#000000" font-family="sans-serif" font-size="14" lengthAdjust="spacing" textLength="251" x="416.5" y="101.5352">2 &#20010;&#23383;&#33410;&#65292;&#29992;&#20110;&#21306;&#20998;&#25552;&#20379;&#21327;&#35758;&#26632;&#30340;&#20379;&#24212;&#21830;</text><rect fill="none" height="20.4883" rx="5" ry="5" style="stroke:#000000;stroke-width:1.5;" width="261" x="411.5" y="86"/><rect fill="#F1F1F1" height="20.4883" rx="5" ry="5" style="stroke:#F1F1F1;stroke-width:1.5;" width="696" x="194" y="124"/><text fill="#000000" font-family="sans-serif" font-size="14" lengthAdjust="spacing" textLength="686" x="199" y="139.5352">12 &#20010;&#23383;&#33410;&#65292;&#31867;&#20284;&#20110; identifier &#30340;&#27010;&#24565;&#65292;&#19968;&#20010;&#21442;&#19982;&#32773;&#19979;&#25152;&#26377;&#30340;&#23454;&#20307;&#20849;&#29992;&#21516;&#19968;&#20010; id&#65292;&#19968;&#20010;&#25299;&#25169;&#19979;&#19981;&#20801;&#35768;&#26377;&#30456;&#21516;&#30340; id</text><rect fill="none" height="20.4883" rx="5" ry="5" style="stroke:#000000;stroke-width:1.5;" width="696" x="194" y="124"/><path d="M145,46.2441 L158,46.2441 C174.2997,46.2441 177.8242,41.2494 194,39.2441 C277.7422,28.8631 373.5382,24.1539 443.3122,22.0177 " fill="none" style="stroke:#000000;stroke-width:1.0;stroke-dasharray:3.0,3.0;"/><path d="M443.4015,25.0264 L445.5687,21.9507 L443.2228,19.0091 L450.8338,21.7943 L443.4015,25.0264 " fill="#000000" style="stroke:#000000;stroke-width:1.0;"/><ellipse cx="145" cy="46.2441" fill="#000000" rx="3" ry="3" style="stroke:#000000;stroke-width:1.0;"/><path d="M145,67.2441 L158,67.2441 C258.2826,67.2441 373.2752,64.1304 450.9776,61.5658 " fill="none" style="stroke:#000000;stroke-width:1.0;stroke-dasharray:3.0,3.0;"/><path d="M451.0825,64.7145 L453.3391,61.4872 L450.8728,58.4172 L458.8493,61.3037 L451.0825,64.7145 " fill="#000000" style="stroke:#000000;stroke-width:1.0;"/><ellipse cx="145" cy="67.2441" fill="#000000" rx="3" ry="3" style="stroke:#000000;stroke-width:1.0;"/><path d="M145,87.2441 L158,87.2441 C239.6062,87.2441 330.9535,89.3061 404.0199,91.4561 " fill="none" style="stroke:#000000;stroke-width:1.0;stroke-dasharray:3.0,3.0;"/><path d="M403.9258,94.6213 L406.3938,91.5267 L404.1141,88.291 L411.9328,91.6914 L403.9258,94.6213 " fill="#000000" style="stroke:#000000;stroke-width:1.0;"/><ellipse cx="145" cy="87.2441" fill="#000000" rx="3" ry="3" style="stroke:#000000;stroke-width:1.0;"/><path d="M145,108.2441 L158,108.2441 C174.2997,108.2441 177.8242,113.2389 194,115.2441 C220.0339,118.4714 247.2327,121.1505 274.4524,123.3745 " fill="none" style="stroke:#000000;stroke-width:1.0;stroke-dasharray:3.0,3.0;"/><path d="M274.2063,126.4453 L276.7555,123.5591 L274.6985,120.3037 L282.1294,123.9898 L274.2063,126.4453 " fill="#000000" style="stroke:#000000;stroke-width:1.0;"/><ellipse cx="145" cy="108.2441" fill="#000000" rx="3" ry="3" style="stroke:#000000;stroke-width:1.0;"/><!--SRC=[xLDTRn9157sVNt73Yv3G1YWsPf-829e6J2EK5zCqMtR0CJ13PXVYHqmeaGPi2vYY9jAeJPhQg42RQBAXQF_CpYvl_WLdtLeJc_ZgY_DsxvnpxZttpiHqG-N6VPrHA6DTLujuZT02qrcLvp52L-1t57JwHzQaOmy-so-FHQ_Zd0w1upmcDSp1UVtKCklMP23UJkozJzRPlhqn3jhZlZXiEEsMJ0MBLQA1CsoZnmZayIMeHbHAPTLaIItwG86xlZ1OvWSnV3LxrWZEze-SWuauU2-Ekyx7iQm01HUu6lJu5SuCbcUb7EOwOTGJY5mMsEdEHYF9zjgueDSmrHWdsYNUz-csvrHiJqHhq-xsh6y3JyL-rtADod3I5oysBxHSQsiLZWlamRcFF_HEJgtfL4e2qJ0rI85u8xCF6-BiYmIuivFuRiCoExDwqpAtx7RTtcjBZ1YziRxkYkQ9R4hqpf5Ivu9bR-tQxUUIOfaxehan6vakSM1Ai3ipwN0LFK4nQHUXsD_N_Nyp_smpooML6Ylf5DIyeK5uFXAAHESN_4bE88dN8Rm8eGKb6b92Lo6UoO9x7K3-cykfMWIy3O96T8EJzQeX5G9eIQsfSASgRPMn0cxapwO3a4dyIaA2rWXdj2ojewLSsWF1BMPaAipu2LwCpbqd1cGmTxzvBerku89QBHcIccSQeKK5LhB9kMiefT9YLJue1HxTGt4c2_272iHl_m00]--></g></svg>