<?xml version="1.0" encoding="us-ascii" standalone="no"?><svg xmlns="http://www.w3.org/2000/svg" xmlns:xlink="http://www.w3.org/1999/xlink" contentStyleType="text/css" height="118px" preserveAspectRatio="none" style="width:678px;height:118px;background:#FFFFFF;" version="1.1" viewBox="0 0 678 118" width="678px" zoomAndPan="magnify"><defs/><g><rect fill="#F1F1F1" height="61.4648" rx="5" ry="5" style="stroke:#F1F1F1;stroke-width:1.5;" width="174" x="10" y="27.5117"/><text fill="#000000" font-family="sans-serif" font-size="14" font-weight="bold" lengthAdjust="spacing" textLength="110" x="15" y="43.0469">submessage_id</text><text fill="#000000" font-family="sans-serif" font-size="14" lengthAdjust="spacing" textLength="12" x="167" y="43.0469">&#160;&#160;&#160;</text><line style="stroke:#000000;stroke-width:1.0;" x1="162" x2="162" y1="27.5117" y2="48"/><line style="stroke:#000000;stroke-width:1.0;" x1="10" x2="184" y1="48" y2="48"/><text fill="#000000" font-family="sans-serif" font-size="14" font-weight="bold" lengthAdjust="spacing" textLength="36" x="15" y="63.5352">flags</text><text fill="#000000" font-family="sans-serif" font-size="14" lengthAdjust="spacing" textLength="12" x="167" y="63.5352">&#160;&#160;&#160;</text><line style="stroke:#000000;stroke-width:1.0;" x1="162" x2="162" y1="48" y2="68.4883"/><line style="stroke:#000000;stroke-width:1.0;" x1="10" x2="184" y1="68.4883" y2="68.4883"/><text fill="#000000" font-family="sans-serif" font-size="14" font-weight="bold" lengthAdjust="spacing" textLength="142" x="15" y="84.0234">submessage_length</text><text fill="#000000" font-family="sans-serif" font-size="14" lengthAdjust="spacing" textLength="12" x="167" y="84.0234">&#160;&#160;&#160;</text><line style="stroke:#000000;stroke-width:1.0;" x1="162" x2="162" y1="68.4883" y2="88.9766"/><rect fill="none" height="61.4648" rx="5" ry="5" style="stroke:#000000;stroke-width:1.5;" width="174" x="10" y="27.5117"/><rect fill="#F1F1F1" height="20.4883" rx="5" ry="5" style="stroke:#F1F1F1;stroke-width:1.5;" width="331" x="278" y="10"/><text fill="#000000" font-family="sans-serif" font-size="14" lengthAdjust="spacing" textLength="321" x="283" y="25.5352">1 &#20010;&#23383;&#33410;&#65292;&#34920;&#31034;&#24403;&#21069;&#30340;&#23376;&#28040;&#24687;&#20026;&#21738;&#19968;&#31181;&#31867;&#22411;&#30340;&#23376;&#28040;&#24687;</text><rect fill="none" height="20.4883" rx="5" ry="5" style="stroke:#000000;stroke-width:1.5;" width="331" x="278" y="10"/><rect fill="#F1F1F1" height="20.4883" rx="5" ry="5" style="stroke:#F1F1F1;stroke-width:1.5;" width="445" x="221" y="48"/><text fill="#000000" font-family="sans-serif" font-size="14" lengthAdjust="spacing" textLength="435" x="226" y="63.5352">1 &#20010;&#23383;&#33410;&#65292;&#20026; flag&#65292;&#29992;&#20110;&#25551;&#36848;&#21518;&#32493;&#23376;&#28040;&#24687;&#30340;&#19968;&#20123;&#23646;&#24615;&#65292;&#27604;&#22914;&#35828;&#22823;&#23567;&#31471;&#31561;</text><rect fill="none" height="20.4883" rx="5" ry="5" style="stroke:#000000;stroke-width:1.5;" width="445" x="221" y="48"/><rect fill="#F1F1F1" height="20.4883" rx="5" ry="5" style="stroke:#F1F1F1;stroke-width:1.5;" width="275" x="306" y="86"/><text fill="#000000" font-family="sans-serif" font-size="14" lengthAdjust="spacing" textLength="265" x="311" y="101.5352">2 &#20010;&#23383;&#33410;&#65292;&#34920;&#31034;&#21518;&#32493;&#30340;&#25968;&#25454;&#21344;&#29992;&#22810;&#23569;&#20010;&#23383;&#33410;</text><rect fill="none" height="20.4883" rx="5" ry="5" style="stroke:#000000;stroke-width:1.5;" width="275" x="306" y="86"/><path d="M172,38.2441 L185,38.2441 C234.338,38.2441 288.8548,34.9279 335.0146,31.1422 " fill="none" style="stroke:#000000;stroke-width:1.0;stroke-dasharray:3.0,3.0;"/><path d="M335.269,34.1938 L337.3033,30.9513 L334.7601,28.0905 L342.6437,30.5061 L335.269,34.1938 " fill="#000000" style="stroke:#000000;stroke-width:1.0;"/><ellipse cx="172" cy="38.2441" fill="#000000" rx="3" ry="3" style="stroke:#000000;stroke-width:1.0;"/><path d="M172,58.2441 L185,58.2441 C194.366,58.2441 203.9233,58.2441 213.5781,58.2441 " fill="none" style="stroke:#000000;stroke-width:1.0;stroke-dasharray:3.0,3.0;"/><path d="M213.5781,61.349 L215.9067,58.2441 L213.5781,55.1393 L221.3401,58.2441 L213.5781,61.349 " fill="#000000" style="stroke:#000000;stroke-width:1.0;"/><ellipse cx="172" cy="58.2441" fill="#000000" rx="3" ry="3" style="stroke:#000000;stroke-width:1.0;"/><path d="M172,78.2441 L185,78.2441 C234.338,78.2441 288.8548,81.5604 335.0146,85.3461 " fill="none" style="stroke:#000000;stroke-width:1.0;stroke-dasharray:3.0,3.0;"/><path d="M334.7601,88.3978 L337.3033,85.5369 L335.269,82.2944 L342.6437,85.9822 L334.7601,88.3978 " fill="#000000" style="stroke:#000000;stroke-width:1.0;"/><ellipse cx="172" cy="78.2441" fill="#000000" rx="3" ry="3" style="stroke:#000000;stroke-width:1.0;"/><!--SRC=[RL3HIXj157sVhxZiKm9LafXAsITfD8eaHKpqHKGcxhYPaipAp6oW5a751wt6A2e51L48HfIO2592LFoPdTsyzHSwYHW2TPxkt7FkEVUUCI4nbz-5mw18XC0sMH9kxhtC4smHZj1F1FeP0mYr31CMZ2XuhLjL_ztvjVNtURzpTHDKs-hbMEsMWxDjLJ_q_-pucmslrLR7jrvh8wYLWuSdTR4tY1gBdzxaLmhO5WRyhwldeGlgCZYvyTe7VgNIUMsgmuFWgTxNqPhQmckVguSBVwEcoNxZH5rlTHgFgbfJpKfmrmZgktsxWMiAXDaotxiezj55FIEjxvys_VAzAb_gDLJrJ3MF-cHZ4QqZD4QOrGqJePa2Pd8kdO8IuOBgUAF3iKWiFZmIId8AIPA3w2X4Hinun8nyXaGc2rquZ4AJCwbI38JZycK25XMIqvmhjK8OJUCIXbcNILea9dH_eMmw39c9zoPCi1Bb3YiI9j7qVFgD15EEpAmwiaSUZGzzfH8oXEl5O3wDniaATWjIZoux5cMs2NFPvD0NbCBCTdKu9gpbKSBH1lo72Obl_m00]--></g></svg>