<?xml version="1.0" encoding="us-ascii" standalone="no"?><svg xmlns="http://www.w3.org/2000/svg" xmlns:xlink="http://www.w3.org/1999/xlink" contentStyleType="text/css" height="409px" preserveAspectRatio="none" style="width:500px;height:409px;background:#FFFFFF;" version="1.1" viewBox="0 0 500 409" width="500px" zoomAndPan="magnify"><defs/><g><!--class sink--><g id="elem_sink"><rect codeLine="2" fill="#F1F1F1" height="113.9531" id="sink" rx="2.5" ry="2.5" style="stroke:#181818;stroke-width:0.5;" width="165" x="110.5" y="7"/><ellipse cx="174.75" cy="23" fill="#ADD1B2" rx="11" ry="11" style="stroke:#181818;stroke-width:1.0;"/><path d="M177.2231,29.1431 Q176.6421,29.4419 176.0029,29.5913 Q175.3638,29.7407 174.6582,29.7407 Q172.1514,29.7407 170.8315,28.0889 Q169.5117,26.437 169.5117,23.3159 Q169.5117,20.1865 170.8315,18.5347 Q172.1514,16.8828 174.6582,16.8828 Q175.3638,16.8828 176.0112,17.0322 Q176.6587,17.1816 177.2231,17.4805 L177.2231,20.2031 Q176.5923,19.6221 175.9988,19.3523 Q175.4053,19.0825 174.7744,19.0825 Q173.4297,19.0825 172.7449,20.1492 Q172.0601,21.2158 172.0601,23.3159 Q172.0601,25.4077 172.7449,26.4744 Q173.4297,27.541 174.7744,27.541 Q175.4053,27.541 175.9988,27.2712 Q176.5923,27.0015 177.2231,26.4204 Z " fill="#000000"/><text fill="#000000" font-family="sans-serif" font-size="14" lengthAdjust="spacing" textLength="28" x="195.25" y="28.291">sink</text><line style="stroke:#181818;stroke-width:0.5;" x1="111.5" x2="274.5" y1="39" y2="39"/><line style="stroke:#181818;stroke-width:0.5;" x1="111.5" x2="274.5" y1="47" y2="47"/><rect fill="#F24D5C" height="6" style="stroke:#C82930;stroke-width:1.0;" width="6" x="118.5" y="57.7441"/><text fill="#000000" font-family="sans-serif" font-size="14" lengthAdjust="spacing" textLength="127" x="130.5" y="64.5352">void log(log_msg);</text><rect fill="#F24D5C" height="6" style="stroke:#C82930;stroke-width:1.0;" width="6" x="118.5" y="74.2324"/><text fill="#000000" font-family="sans-serif" font-size="14" lengthAdjust="spacing" textLength="81" x="130.5" y="81.0234">void flush();</text><rect fill="#F24D5C" height="6" style="stroke:#C82930;stroke-width:1.0;" width="6" x="118.5" y="90.7207"/><text fill="#000000" font-family="sans-serif" font-size="14" lengthAdjust="spacing" textLength="124" x="130.5" y="97.5117">void set_pattern();</text><rect fill="#F24D5C" height="6" style="stroke:#C82930;stroke-width:1.0;" width="6" x="118.5" y="107.209"/><text fill="#000000" font-family="sans-serif" font-size="14" lengthAdjust="spacing" textLength="139" x="130.5" y="114">void set_formatter();</text></g><!--class basic_sink--><g id="elem_basic_sink"><rect codeLine="9" fill="#F1F1F1" height="113.9531" id="basic_sink" rx="2.5" ry="2.5" style="stroke:#181818;stroke-width:0.5;" width="182" x="7" y="180.96"/><ellipse cx="58.75" cy="196.96" fill="#ADD1B2" rx="11" ry="11" style="stroke:#181818;stroke-width:1.0;"/><path d="M61.2231,203.1031 Q60.6421,203.4019 60.0029,203.5513 Q59.3638,203.7007 58.6582,203.7007 Q56.1514,203.7007 54.8315,202.0489 Q53.5117,200.397 53.5117,197.2759 Q53.5117,194.1465 54.8315,192.4947 Q56.1514,190.8428 58.6582,190.8428 Q59.3638,190.8428 60.0112,190.9922 Q60.6587,191.1416 61.2231,191.4405 L61.2231,194.1631 Q60.5923,193.5821 59.9988,193.3123 Q59.4053,193.0425 58.7744,193.0425 Q57.4297,193.0425 56.7449,194.1092 Q56.0601,195.1758 56.0601,197.2759 Q56.0601,199.3677 56.7449,200.4344 Q57.4297,201.501 58.7744,201.501 Q59.4053,201.501 59.9988,201.2312 Q60.5923,200.9615 61.2231,200.3804 Z " fill="#000000"/><text fill="#000000" font-family="sans-serif" font-size="14" lengthAdjust="spacing" textLength="70" x="79.25" y="202.251">basic_sink</text><line style="stroke:#181818;stroke-width:0.5;" x1="8" x2="188" y1="212.96" y2="212.96"/><line style="stroke:#181818;stroke-width:0.5;" x1="8" x2="188" y1="220.96" y2="220.96"/><rect fill="#F24D5C" height="6" style="stroke:#C82930;stroke-width:1.0;" width="6" x="15" y="231.7041"/><text fill="#000000" font-family="sans-serif" font-size="14" lengthAdjust="spacing" textLength="156" x="27" y="238.4952">void sink_it_(log_msg);</text><rect fill="#F24D5C" height="6" style="stroke:#C82930;stroke-width:1.0;" width="6" x="15" y="248.1924"/><text fill="#000000" font-family="sans-serif" font-size="14" lengthAdjust="spacing" textLength="88" x="27" y="254.9834">void flush_();</text><rect fill="#F24D5C" height="6" style="stroke:#C82930;stroke-width:1.0;" width="6" x="15" y="264.6807"/><text fill="#000000" font-family="sans-serif" font-size="14" lengthAdjust="spacing" textLength="131" x="27" y="271.4717">void set_pattern_();</text><rect fill="#F24D5C" height="6" style="stroke:#C82930;stroke-width:1.0;" width="6" x="15" y="281.169"/><text fill="#000000" font-family="sans-serif" font-size="14" lengthAdjust="spacing" textLength="146" x="27" y="287.96">void set_formatter_();</text></g><!--class ansicolor_sink--><g id="elem_ansicolor_sink"><rect fill="#F1F1F1" height="48" id="ansicolor_sink" rx="2.5" ry="2.5" style="stroke:#181818;stroke-width:0.5;" width="130" x="224" y="213.93"/><ellipse cx="239" cy="229.93" fill="#ADD1B2" rx="11" ry="11" style="stroke:#181818;stroke-width:1.0;"/><path d="M241.4731,236.0731 Q240.8921,236.3719 240.2529,236.5213 Q239.6138,236.6707 238.9082,236.6707 Q236.4014,236.6707 235.0815,235.0189 Q233.7617,233.367 233.7617,230.2459 Q233.7617,227.1165 235.0815,225.4647 Q236.4014,223.8128 238.9082,223.8128 Q239.6138,223.8128 240.2612,223.9622 Q240.9087,224.1116 241.4731,224.4105 L241.4731,227.1331 Q240.8423,226.5521 240.2488,226.2823 Q239.6553,226.0125 239.0244,226.0125 Q237.6797,226.0125 236.9949,227.0792 Q236.3101,228.1458 236.3101,230.2459 Q236.3101,232.3377 236.9949,233.4044 Q237.6797,234.471 239.0244,234.471 Q239.6553,234.471 240.2488,234.2012 Q240.8423,233.9315 241.4731,233.3504 Z " fill="#000000"/><text fill="#000000" font-family="sans-serif" font-size="14" lengthAdjust="spacing" textLength="98" x="253" y="235.221">ansicolor_sink</text><line style="stroke:#181818;stroke-width:0.5;" x1="225" x2="353" y1="245.93" y2="245.93"/><line style="stroke:#181818;stroke-width:0.5;" x1="225" x2="353" y1="253.93" y2="253.93"/></g><!--class basic_file_sink--><g id="elem_basic_file_sink"><rect fill="#F1F1F1" height="48" id="basic_file_sink" rx="2.5" ry="2.5" style="stroke:#181818;stroke-width:0.5;" width="130" x="204" y="354.91"/><ellipse cx="219" cy="370.91" fill="#ADD1B2" rx="11" ry="11" style="stroke:#181818;stroke-width:1.0;"/><path d="M221.4731,377.0531 Q220.8921,377.3519 220.2529,377.5013 Q219.6138,377.6507 218.9082,377.6507 Q216.4014,377.6507 215.0815,375.9989 Q213.7617,374.347 213.7617,371.2259 Q213.7617,368.0965 215.0815,366.4447 Q216.4014,364.7928 218.9082,364.7928 Q219.6138,364.7928 220.2612,364.9422 Q220.9087,365.0916 221.4731,365.3905 L221.4731,368.1131 Q220.8423,367.5321 220.2488,367.2623 Q219.6553,366.9925 219.0244,366.9925 Q217.6797,366.9925 216.9949,368.0592 Q216.3101,369.1258 216.3101,371.2259 Q216.3101,373.3177 216.9949,374.3844 Q217.6797,375.451 219.0244,375.451 Q219.6553,375.451 220.2488,375.1812 Q220.8423,374.9115 221.4731,374.3304 Z " fill="#000000"/><text fill="#000000" font-family="sans-serif" font-size="14" lengthAdjust="spacing" textLength="98" x="233" y="376.201">basic_file_sink</text><line style="stroke:#181818;stroke-width:0.5;" x1="205" x2="333" y1="386.91" y2="386.91"/><line style="stroke:#181818;stroke-width:0.5;" x1="205" x2="333" y1="394.91" y2="394.91"/></g><!--class file_helper--><g id="elem_file_helper"><rect fill="#F1F1F1" height="48" id="file_helper" rx="2.5" ry="2.5" style="stroke:#181818;stroke-width:0.5;" width="104" x="389" y="213.93"/><ellipse cx="404" cy="229.93" fill="#ADD1B2" rx="11" ry="11" style="stroke:#181818;stroke-width:1.0;"/><path d="M406.4731,236.0731 Q405.8921,236.3719 405.2529,236.5213 Q404.6138,236.6707 403.9082,236.6707 Q401.4014,236.6707 400.0815,235.0189 Q398.7617,233.367 398.7617,230.2459 Q398.7617,227.1165 400.0815,225.4647 Q401.4014,223.8128 403.9082,223.8128 Q404.6138,223.8128 405.2612,223.9622 Q405.9087,224.1116 406.4731,224.4105 L406.4731,227.1331 Q405.8423,226.5521 405.2488,226.2823 Q404.6553,226.0125 404.0244,226.0125 Q402.6797,226.0125 401.9949,227.0792 Q401.3101,228.1458 401.3101,230.2459 Q401.3101,232.3377 401.9949,233.4044 Q402.6797,234.471 404.0244,234.471 Q404.6553,234.471 405.2488,234.2012 Q405.8423,233.9315 406.4731,233.3504 Z " fill="#000000"/><text fill="#000000" font-family="sans-serif" font-size="14" lengthAdjust="spacing" textLength="72" x="418" y="235.221">file_helper</text><line style="stroke:#181818;stroke-width:0.5;" x1="390" x2="492" y1="245.93" y2="245.93"/><line style="stroke:#181818;stroke-width:0.5;" x1="390" x2="492" y1="253.93" y2="253.93"/></g><!--reverse link sink to basic_sink--><g id="link_sink_basic_sink"><path codeLine="16" d="M153.1935,137.0398 C142.7035,156.0498 139.68,161.49 129.18,180.5 " fill="none" id="sink-backto-basic_sink" style="stroke:#181818;stroke-width:1.0;"/><polygon fill="none" points="161.89,121.28,147.9402,134.141,158.4468,139.9386,161.89,121.28" style="stroke:#181818;stroke-width:1.0;"/></g><!--reverse link sink to ansicolor_sink--><g id="link_sink_ansicolor_sink"><path codeLine="18" d="M233.2035,136.9971 C250.7035,168.3471 262.78,189.97 275.95,213.56 " fill="none" id="sink-backto-ansicolor_sink" style="stroke:#181818;stroke-width:1.0;"/><polygon fill="none" points="224.43,121.28,227.9645,139.9216,238.4425,134.0726,224.43,121.28" style="stroke:#181818;stroke-width:1.0;"/></g><!--reverse link basic_sink to basic_file_sink--><g id="link_basic_sink_basic_file_sink"><path codeLine="20" d="M181.0284,306.4127 C206.6084,327.2027 220.27,338.3 240.3,354.58 " fill="none" id="basic_sink-backto-basic_file_sink" style="stroke:#181818;stroke-width:1.0;"/><polygon fill="none" points="167.06,295.06,177.2441,311.0689,184.8126,301.7566,167.06,295.06" style="stroke:#181818;stroke-width:1.0;"/></g><!--link file_helper to basic_file_sink--><g id="link_file_helper_basic_file_sink"><path codeLine="22" d="M412.15,262.38 C399.79,272.41 385.19,284.24 372,294.91 C347,315.12 327.8879,330.5256 307.2279,347.1556 " fill="none" id="file_helper-to-basic_file_sink" style="stroke:#181818;stroke-width:1.0;"/><polygon fill="#181818" points="297.88,354.68,305.0621,354.0337,307.2279,347.1556,300.0458,347.8018,297.88,354.68" style="stroke:#181818;stroke-width:1.0;"/></g><!--SRC=[TOx13i8W38RlF4MFquGdq7Tf4Cj6x62Xw4Ntxcw4HEB2eKdx_Ms-MZOY83uyuAq0DBoYlmF7STWAPnbFbnzs_9HfQ8bGniNaJ2aSk8jfBj6Uh4hPehePyHR_XVkCFcFNYZqjzhrOnKLs_MZTo5jgmaOZnrIJviNcodcckb3QYNYX15gV3mjV]--></g></svg>