<?xml version="1.0" encoding="us-ascii" standalone="no"?><svg xmlns="http://www.w3.org/2000/svg" xmlns:xlink="http://www.w3.org/1999/xlink" contentStyleType="text/css" height="856px" preserveAspectRatio="none" style="width:445px;height:856px;background:#FFFFFF;" version="1.1" viewBox="0 0 445 856" width="445px" zoomAndPan="magnify"><defs/><g><!--class async_factory_impl--><g id="elem_async_factory_impl"><rect fill="#F1F1F1" height="64.4883" id="async_factory_impl" rx="2.5" ry="2.5" style="stroke:#181818;stroke-width:0.5;" width="161" x="120.5" y="785.25"/><ellipse cx="135.5" cy="801.25" fill="#ADD1B2" rx="11" ry="11" style="stroke:#181818;stroke-width:1.0;"/><path d="M137.9731,807.3931 Q137.3921,807.6919 136.7529,807.8413 Q136.1138,807.9907 135.4082,807.9907 Q132.9014,807.9907 131.5815,806.3389 Q130.2617,804.687 130.2617,801.5659 Q130.2617,798.4365 131.5815,796.7847 Q132.9014,795.1328 135.4082,795.1328 Q136.1138,795.1328 136.7612,795.2822 Q137.4087,795.4316 137.9731,795.7305 L137.9731,798.4531 Q137.3423,797.8721 136.7488,797.6023 Q136.1553,797.3325 135.5244,797.3325 Q134.1797,797.3325 133.4949,798.3992 Q132.8101,799.4658 132.8101,801.5659 Q132.8101,803.6577 133.4949,804.7244 Q134.1797,805.791 135.5244,805.791 Q136.1553,805.791 136.7488,805.5212 Q137.3423,805.2515 137.9731,804.6704 Z " fill="#000000"/><text fill="#000000" font-family="sans-serif" font-size="14" lengthAdjust="spacing" textLength="129" x="149.5" y="806.541">async_factory_impl</text><line style="stroke:#181818;stroke-width:0.5;" x1="121.5" x2="280.5" y1="817.25" y2="817.25"/><line style="stroke:#181818;stroke-width:0.5;" x1="121.5" x2="280.5" y1="825.25" y2="825.25"/><text fill="#000000" font-family="sans-serif" font-size="14" lengthAdjust="spacing" textLength="55" x="126.5" y="842.7852">Create()</text></g><!--class logger--><g id="elem_logger"><rect codeLine="14" fill="#F1F1F1" height="64.4883" id="logger" rx="2.5" ry="2.5" style="stroke:#181818;stroke-width:0.5;" width="174" x="7" y="486.81"/><ellipse cx="67.25" cy="502.81" fill="#ADD1B2" rx="11" ry="11" style="stroke:#181818;stroke-width:1.0;"/><path d="M69.7231,508.9531 Q69.1421,509.2519 68.5029,509.4013 Q67.8638,509.5507 67.1582,509.5507 Q64.6514,509.5507 63.3315,507.8989 Q62.0117,506.247 62.0117,503.1259 Q62.0117,499.9965 63.3315,498.3447 Q64.6514,496.6928 67.1582,496.6928 Q67.8638,496.6928 68.5112,496.8422 Q69.1587,496.9916 69.7231,497.2905 L69.7231,500.0131 Q69.0923,499.4321 68.4988,499.1623 Q67.9053,498.8925 67.2744,498.8925 Q65.9297,498.8925 65.2449,499.9592 Q64.5601,501.0258 64.5601,503.1259 Q64.5601,505.2177 65.2449,506.2844 Q65.9297,507.351 67.2744,507.351 Q67.9053,507.351 68.4988,507.0812 Q69.0923,506.8115 69.7231,506.2304 Z " fill="#000000"/><text fill="#000000" font-family="sans-serif" font-size="14" lengthAdjust="spacing" textLength="45" x="87.75" y="508.101">logger</text><line style="stroke:#181818;stroke-width:0.5;" x1="8" x2="180" y1="518.81" y2="518.81"/><ellipse cx="18" cy="532.5541" fill="none" rx="3" ry="3" style="stroke:#038048;stroke-width:1.0;"/><text fill="#000000" font-family="sans-serif" font-size="14" lengthAdjust="spacing" textLength="148" x="27" y="536.3452">std::vector&lt;sink_ptr&gt;</text><line style="stroke:#181818;stroke-width:0.5;" x1="8" x2="180" y1="543.2983" y2="543.2983"/></g><!--class async_logger--><g id="elem_async_logger"><rect codeLine="18" fill="#F1F1F1" height="97.4648" id="async_logger" rx="2.5" ry="2.5" style="stroke:#181818;stroke-width:0.5;" width="222" x="90" y="627.79"/><ellipse cx="151.75" cy="643.79" fill="#ADD1B2" rx="11" ry="11" style="stroke:#181818;stroke-width:1.0;"/><path d="M154.2231,649.9331 Q153.6421,650.2319 153.0029,650.3813 Q152.3638,650.5307 151.6582,650.5307 Q149.1514,650.5307 147.8315,648.8789 Q146.5117,647.227 146.5117,644.1059 Q146.5117,640.9765 147.8315,639.3247 Q149.1514,637.6728 151.6582,637.6728 Q152.3638,637.6728 153.0112,637.8222 Q153.6587,637.9716 154.2231,638.2705 L154.2231,640.9931 Q153.5923,640.4121 152.9988,640.1423 Q152.4053,639.8725 151.7744,639.8725 Q150.4297,639.8725 149.7449,640.9392 Q149.0601,642.0058 149.0601,644.1059 Q149.0601,646.1977 149.7449,647.2644 Q150.4297,648.331 151.7744,648.331 Q152.4053,648.331 152.9988,648.0612 Q153.5923,647.7915 154.2231,647.2104 Z " fill="#000000"/><text fill="#000000" font-family="sans-serif" font-size="14" lengthAdjust="spacing" textLength="90" x="172.25" y="649.081">async_logger</text><line style="stroke:#181818;stroke-width:0.5;" x1="91" x2="311" y1="659.79" y2="659.79"/><ellipse cx="101" cy="673.5341" fill="none" rx="3" ry="3" style="stroke:#038048;stroke-width:1.0;"/><text fill="#000000" font-family="sans-serif" font-size="14" lengthAdjust="spacing" textLength="196" x="110" y="677.3252">std::weak_ptr&lt;thread_pool&gt;</text><line style="stroke:#181818;stroke-width:0.5;" x1="91" x2="311" y1="684.2783" y2="684.2783"/><rect fill="#F24D5C" height="6" style="stroke:#C82930;stroke-width:1.0;" width="6" x="98" y="695.0224"/><text fill="#000000" font-family="sans-serif" font-size="14" lengthAdjust="spacing" textLength="145" x="110" y="701.8134">void sink_it(log_msg)</text><rect fill="#F24D5C" height="6" style="stroke:#C82930;stroke-width:1.0;" width="6" x="98" y="711.5107"/><text fill="#000000" font-family="sans-serif" font-size="14" lengthAdjust="spacing" textLength="84" x="110" y="718.3017">void flush_()</text></g><!--class circular_q--><g id="elem_circular_q"><rect codeLine="39" fill="#F1F1F1" height="196.3945" id="circular_q" rx="2.5" ry="2.5" style="stroke:#181818;stroke-width:0.5;" width="172" x="223" y="7"/><ellipse cx="271.25" cy="23" fill="#ADD1B2" rx="11" ry="11" style="stroke:#181818;stroke-width:1.0;"/><path d="M273.7231,29.1431 Q273.1421,29.4419 272.5029,29.5913 Q271.8638,29.7407 271.1582,29.7407 Q268.6514,29.7407 267.3315,28.0889 Q266.0117,26.437 266.0117,23.3159 Q266.0117,20.1865 267.3315,18.5347 Q268.6514,16.8828 271.1582,16.8828 Q271.8638,16.8828 272.5112,17.0322 Q273.1587,17.1816 273.7231,17.4805 L273.7231,20.2031 Q273.0923,19.6221 272.4988,19.3523 Q271.9053,19.0825 271.2744,19.0825 Q269.9297,19.0825 269.2449,20.1492 Q268.5601,21.2158 268.5601,23.3159 Q268.5601,25.4077 269.2449,26.4744 Q269.9297,27.541 271.2744,27.541 Q271.9053,27.541 272.4988,27.2712 Q273.0923,27.0015 273.7231,26.4204 Z " fill="#000000"/><text fill="#000000" font-family="sans-serif" font-size="14" lengthAdjust="spacing" textLength="67" x="291.75" y="28.291">circular_q</text><line style="stroke:#181818;stroke-width:0.5;" x1="224" x2="394" y1="39" y2="39"/><ellipse cx="234" cy="52.7441" fill="none" rx="3" ry="3" style="stroke:#038048;stroke-width:1.0;"/><text fill="#000000" font-family="sans-serif" font-size="14" lengthAdjust="spacing" textLength="102" x="243" y="56.5352">std::vector&lt;T&gt;</text><ellipse cx="234" cy="69.2324" fill="none" rx="3" ry="3" style="stroke:#038048;stroke-width:1.0;"/><text fill="#000000" font-family="sans-serif" font-size="14" lengthAdjust="spacing" textLength="34" x="243" y="73.0234">head</text><ellipse cx="234" cy="85.7207" fill="none" rx="3" ry="3" style="stroke:#038048;stroke-width:1.0;"/><text fill="#000000" font-family="sans-serif" font-size="14" lengthAdjust="spacing" textLength="21" x="243" y="89.5117">tail</text><line style="stroke:#181818;stroke-width:0.5;" x1="224" x2="394" y1="96.4648" y2="96.4648"/><rect fill="#F24D5C" height="6" style="stroke:#C82930;stroke-width:1.0;" width="6" x="231" y="107.209"/><text fill="#000000" font-family="sans-serif" font-size="14" lengthAdjust="spacing" textLength="146" x="243" y="114">void push_back(item)</text><rect fill="#F24D5C" height="6" style="stroke:#C82930;stroke-width:1.0;" width="6" x="231" y="123.6973"/><text fill="#000000" font-family="sans-serif" font-size="14" lengthAdjust="spacing" textLength="57" x="243" y="130.4883">T front()</text><rect fill="#F24D5C" height="6" style="stroke:#C82930;stroke-width:1.0;" width="6" x="231" y="140.1855"/><text fill="#000000" font-family="sans-serif" font-size="14" lengthAdjust="spacing" textLength="109" x="243" y="146.9766">std::size_t size()</text><rect fill="#F24D5C" height="6" style="stroke:#C82930;stroke-width:1.0;" width="6" x="231" y="156.6738"/><text fill="#000000" font-family="sans-serif" font-size="14" lengthAdjust="spacing" textLength="85" x="243" y="163.4648">T&amp; at(size_t)</text><rect fill="#F24D5C" height="6" style="stroke:#C82930;stroke-width:1.0;" width="6" x="231" y="173.1621"/><text fill="#000000" font-family="sans-serif" font-size="14" lengthAdjust="spacing" textLength="111" x="243" y="179.9531">void pop_front()</text><rect fill="#F24D5C" height="6" style="stroke:#C82930;stroke-width:1.0;" width="6" x="231" y="189.6504"/><text fill="#000000" font-family="sans-serif" font-size="14" lengthAdjust="spacing" textLength="87" x="243" y="196.4414">bool empty()</text></g><!--class mpmc_blocking_queue--><g id="elem_mpmc_blocking_queue"><rect codeLine="30" fill="#F1F1F1" height="146.9297" id="mpmc_blocking_queue" rx="2.5" ry="2.5" style="stroke:#181818;stroke-width:0.5;" width="258" x="180" y="263.39"/><ellipse cx="225.75" cy="279.39" fill="#ADD1B2" rx="11" ry="11" style="stroke:#181818;stroke-width:1.0;"/><path d="M228.2231,285.5331 Q227.6421,285.8319 227.0029,285.9813 Q226.3638,286.1307 225.6582,286.1307 Q223.1514,286.1307 221.8315,284.4789 Q220.5117,282.827 220.5117,279.7059 Q220.5117,276.5765 221.8315,274.9247 Q223.1514,273.2728 225.6582,273.2728 Q226.3638,273.2728 227.0112,273.4222 Q227.6587,273.5716 228.2231,273.8705 L228.2231,276.5931 Q227.5923,276.0121 226.9988,275.7423 Q226.4053,275.4725 225.7744,275.4725 Q224.4297,275.4725 223.7449,276.5392 Q223.0601,277.6058 223.0601,279.7059 Q223.0601,281.7977 223.7449,282.8644 Q224.4297,283.931 225.7744,283.931 Q226.4053,283.931 226.9988,283.6612 Q227.5923,283.3915 228.2231,282.8104 Z " fill="#000000"/><text fill="#000000" font-family="sans-serif" font-size="14" lengthAdjust="spacing" textLength="158" x="246.25" y="284.681">mpmc_blocking_queue</text><line style="stroke:#181818;stroke-width:0.5;" x1="181" x2="437" y1="295.39" y2="295.39"/><ellipse cx="191" cy="309.1341" fill="none" rx="3" ry="3" style="stroke:#038048;stroke-width:1.0;"/><text fill="#000000" font-family="sans-serif" font-size="14" lengthAdjust="spacing" textLength="67" x="200" y="312.9252">circular_q</text><line style="stroke:#181818;stroke-width:0.5;" x1="181" x2="437" y1="319.8783" y2="319.8783"/><rect fill="#F24D5C" height="6" style="stroke:#C82930;stroke-width:1.0;" width="6" x="188" y="330.6224"/><text fill="#000000" font-family="sans-serif" font-size="14" lengthAdjust="spacing" textLength="133" x="200" y="337.4134">void enqueue(item)</text><rect fill="#F24D5C" height="6" style="stroke:#C82930;stroke-width:1.0;" width="6" x="188" y="347.1107"/><text fill="#000000" font-family="sans-serif" font-size="14" lengthAdjust="spacing" textLength="186" x="200" y="353.9017">void enqueue_nowait(item)</text><rect fill="#F24D5C" height="6" style="stroke:#C82930;stroke-width:1.0;" width="6" x="188" y="363.599"/><text fill="#000000" font-family="sans-serif" font-size="14" lengthAdjust="spacing" textLength="232" x="200" y="370.39">void enqueue_if_have_room(item)</text><rect fill="#F24D5C" height="6" style="stroke:#C82930;stroke-width:1.0;" width="6" x="188" y="380.0873"/><text fill="#000000" font-family="sans-serif" font-size="14" lengthAdjust="spacing" textLength="160" x="200" y="386.8783">void dequeue_for(item)</text><rect fill="#F24D5C" height="6" style="stroke:#C82930;stroke-width:1.0;" width="6" x="188" y="396.5755"/><text fill="#000000" font-family="sans-serif" font-size="14" lengthAdjust="spacing" textLength="133" x="200" y="403.3666">void dequeue(item)</text></g><!--class thread_pool--><g id="elem_thread_pool"><rect codeLine="24" fill="#F1F1F1" height="97.4648" id="thread_pool" rx="2.5" ry="2.5" style="stroke:#181818;stroke-width:0.5;" width="186" x="216" y="470.32"/><ellipse cx="263.25" cy="486.32" fill="#ADD1B2" rx="11" ry="11" style="stroke:#181818;stroke-width:1.0;"/><path d="M265.7231,492.4631 Q265.1421,492.7619 264.5029,492.9113 Q263.8638,493.0607 263.1582,493.0607 Q260.6514,493.0607 259.3315,491.4089 Q258.0117,489.757 258.0117,486.6359 Q258.0117,483.5065 259.3315,481.8547 Q260.6514,480.2028 263.1582,480.2028 Q263.8638,480.2028 264.5112,480.3522 Q265.1587,480.5016 265.7231,480.8005 L265.7231,483.5231 Q265.0923,482.9421 264.4988,482.6723 Q263.9053,482.4025 263.2744,482.4025 Q261.9297,482.4025 261.2449,483.4692 Q260.5601,484.5358 260.5601,486.6359 Q260.5601,488.7277 261.2449,489.7944 Q261.9297,490.861 263.2744,490.861 Q263.9053,490.861 264.4988,490.5912 Q265.0923,490.3215 265.7231,489.7404 Z " fill="#000000"/><text fill="#000000" font-family="sans-serif" font-size="14" lengthAdjust="spacing" textLength="83" x="283.75" y="491.611">thread_pool</text><line style="stroke:#181818;stroke-width:0.5;" x1="217" x2="401" y1="502.32" y2="502.32"/><ellipse cx="227" cy="516.0641" fill="none" rx="3" ry="3" style="stroke:#038048;stroke-width:1.0;"/><text fill="#000000" font-family="sans-serif" font-size="14" lengthAdjust="spacing" textLength="158" x="236" y="519.8552">mpmc_blocking_queue</text><line style="stroke:#181818;stroke-width:0.5;" x1="217" x2="401" y1="526.8083" y2="526.8083"/><rect fill="#F24D5C" height="6" style="stroke:#C82930;stroke-width:1.0;" width="6" x="224" y="537.5524"/><text fill="#000000" font-family="sans-serif" font-size="14" lengthAdjust="spacing" textLength="160" x="236" y="544.3434">void post_log(log_msg)</text><rect fill="#F24D5C" height="6" style="stroke:#C82930;stroke-width:1.0;" width="6" x="224" y="554.0407"/><text fill="#000000" font-family="sans-serif" font-size="14" lengthAdjust="spacing" textLength="114" x="236" y="560.8317">void post_flush()</text></g><!--reverse link logger to async_logger--><g id="link_logger_async_logger"><path codeLine="4" d="M125.8608,566.3436 C140.8908,588.1636 150.96,602.82 167.99,627.56 " fill="none" id="logger-backto-async_logger" style="stroke:#181818;stroke-width:1.0;"/><polygon fill="none" points="115.65,551.52,120.9196,569.7472,130.802,562.94,115.65,551.52" style="stroke:#181818;stroke-width:1.0;"/></g><!--link circular_q to mpmc_blocking_queue--><g id="link_circular_q_mpmc_blocking_queue"><path codeLine="6" d="M309,203.59 C309,223.52 309,232.16 309,251.05 " fill="none" id="circular_q-to-mpmc_blocking_queue" style="stroke:#181818;stroke-width:1.0;"/><polygon fill="#181818" points="309,263.05,313,257.05,309,251.05,305,257.05,309,263.05" style="stroke:#181818;stroke-width:1.0;"/></g><!--link mpmc_blocking_queue to thread_pool--><g id="link_mpmc_blocking_queue_thread_pool"><path codeLine="8" d="M309,410.63 C309,430.56 309,439.66 309,457.84 " fill="none" id="mpmc_blocking_queue-to-thread_pool" style="stroke:#181818;stroke-width:1.0;"/><polygon fill="#181818" points="309,469.84,313,463.84,309,457.84,305,463.84,309,469.84" style="stroke:#181818;stroke-width:1.0;"/></g><!--link async_logger to async_factory_impl--><g id="link_async_logger_async_factory_impl"><path codeLine="10" d="M201,725.74 C201,745.34 201,755.43 201,772.92 " fill="none" id="async_logger-to-async_factory_impl" style="stroke:#181818;stroke-width:1.0;"/><polygon fill="#181818" points="201,784.92,205,778.92,201,772.92,197,778.92,201,784.92" style="stroke:#181818;stroke-width:1.0;"/></g><!--link thread_pool to async_logger--><g id="link_thread_pool_async_logger"><path codeLine="12" d="M275.72,567.97 C262.58,586.88 254.3562,598.7146 241.2062,617.6446 " fill="none" id="thread_pool-to-async_logger" style="stroke:#181818;stroke-width:1.0;"/><polygon fill="#181818" points="234.36,627.5,241.0682,624.8544,241.2062,617.6446,234.498,620.2902,234.36,627.5" style="stroke:#181818;stroke-width:1.0;"/></g><!--SRC=[TLBBZeCm3BpdAtnQmLRyG8LwsL_etN93W8Y4f4berNty-q9WIxgb9s1cF6Diax_r76lYmRWRIcqLxE732GeYonbJfcc4W_AxA82YT4OOuzBnGP73CnJ5EsYhEPwKuPti6pmFOX2CRO1H7Dene49hZ68ijOqiFRN4M5AHQEwzAF8U5eil1h037whz_Y8cZzBBlaCRt87z_6aVGgUA0Yv6LX2bCcGZWzet-ShKQl0jPldgVXKKRSkakIGYRJb9iCQ7ANWZ8b8nPudP6khTVskuIOxe8vJ987J-16DlhZJ-vmjMrjZIHQ0pHl_NL6BMrCQzeExm3jOhMHjFBYUTopJU4_4kCJr2xKmVilah3jtBJu41fiS27z-0GZRZ3yEqc5QVfZq8RSCjtU5o8ST3XDfnOV4ba5HZmxy0]--></g></svg>