<?xml version="1.0" encoding="us-ascii" standalone="no"?><svg xmlns="http://www.w3.org/2000/svg" xmlns:xlink="http://www.w3.org/1999/xlink" contentStyleType="text/css" height="294px" preserveAspectRatio="none" style="width:541px;height:294px;background:#FFFFFF;" version="1.1" viewBox="0 0 541 294" width="541px" zoomAndPan="magnify"><defs/><g><!--class logger--><g id="elem_logger"><rect fill="#F1F1F1" height="48" id="logger" rx="2.5" ry="2.5" style="stroke:#181818;stroke-width:0.5;" width="77" x="265.5" y="131.49"/><ellipse cx="280.5" cy="147.49" fill="#ADD1B2" rx="11" ry="11" style="stroke:#181818;stroke-width:1.0;"/><path d="M282.9731,153.6331 Q282.3921,153.9319 281.7529,154.0813 Q281.1138,154.2307 280.4082,154.2307 Q277.9014,154.2307 276.5815,152.5789 Q275.2617,150.927 275.2617,147.8059 Q275.2617,144.6765 276.5815,143.0247 Q277.9014,141.3728 280.4082,141.3728 Q281.1138,141.3728 281.7612,141.5222 Q282.4087,141.6716 282.9731,141.9705 L282.9731,144.6931 Q282.3423,144.1121 281.7488,143.8423 Q281.1553,143.5725 280.5244,143.5725 Q279.1797,143.5725 278.4949,144.6392 Q277.8101,145.7058 277.8101,147.8059 Q277.8101,149.8977 278.4949,150.9644 Q279.1797,152.031 280.5244,152.031 Q281.1553,152.031 281.7488,151.7612 Q282.3423,151.4915 282.9731,150.9104 Z " fill="#000000"/><text fill="#000000" font-family="sans-serif" font-size="14" lengthAdjust="spacing" textLength="45" x="294.5" y="152.781">logger</text><line style="stroke:#181818;stroke-width:0.5;" x1="266.5" x2="341.5" y1="163.49" y2="163.49"/><line style="stroke:#181818;stroke-width:0.5;" x1="266.5" x2="341.5" y1="171.49" y2="171.49"/></g><!--class async_logger--><g id="elem_async_logger"><rect fill="#F1F1F1" height="48" id="async_logger" rx="2.5" ry="2.5" style="stroke:#181818;stroke-width:0.5;" width="122" x="243" y="239.49"/><ellipse cx="258" cy="255.49" fill="#ADD1B2" rx="11" ry="11" style="stroke:#181818;stroke-width:1.0;"/><path d="M260.4731,261.6331 Q259.8921,261.9319 259.2529,262.0813 Q258.6138,262.2307 257.9082,262.2307 Q255.4014,262.2307 254.0815,260.5789 Q252.7617,258.927 252.7617,255.8059 Q252.7617,252.6765 254.0815,251.0247 Q255.4014,249.3728 257.9082,249.3728 Q258.6138,249.3728 259.2612,249.5222 Q259.9087,249.6716 260.4731,249.9705 L260.4731,252.6931 Q259.8423,252.1121 259.2488,251.8423 Q258.6553,251.5725 258.0244,251.5725 Q256.6797,251.5725 255.9949,252.6392 Q255.3101,253.7058 255.3101,255.8059 Q255.3101,257.8977 255.9949,258.9644 Q256.6797,260.031 258.0244,260.031 Q258.6553,260.031 259.2488,259.7612 Q259.8423,259.4915 260.4731,258.9104 Z " fill="#000000"/><text fill="#000000" font-family="sans-serif" font-size="14" lengthAdjust="spacing" textLength="90" x="272" y="260.781">async_logger</text><line style="stroke:#181818;stroke-width:0.5;" x1="244" x2="364" y1="271.49" y2="271.49"/><line style="stroke:#181818;stroke-width:0.5;" x1="244" x2="364" y1="279.49" y2="279.49"/></g><!--class synchronous_factory--><g id="elem_synchronous_factory"><rect fill="#F1F1F1" height="64.4883" id="synchronous_factory" rx="2.5" ry="2.5" style="stroke:#181818;stroke-width:0.5;" width="174" x="7" y="7"/><ellipse cx="22" cy="23" fill="#ADD1B2" rx="11" ry="11" style="stroke:#181818;stroke-width:1.0;"/><path d="M24.4731,29.1431 Q23.8921,29.4419 23.2529,29.5913 Q22.6138,29.7407 21.9082,29.7407 Q19.4014,29.7407 18.0815,28.0889 Q16.7617,26.437 16.7617,23.3159 Q16.7617,20.1865 18.0815,18.5347 Q19.4014,16.8828 21.9082,16.8828 Q22.6138,16.8828 23.2612,17.0322 Q23.9087,17.1816 24.4731,17.4805 L24.4731,20.2031 Q23.8423,19.6221 23.2488,19.3523 Q22.6553,19.0825 22.0244,19.0825 Q20.6797,19.0825 19.9949,20.1492 Q19.3101,21.2158 19.3101,23.3159 Q19.3101,25.4077 19.9949,26.4744 Q20.6797,27.541 22.0244,27.541 Q22.6553,27.541 23.2488,27.2712 Q23.8423,27.0015 24.4731,26.4204 Z " fill="#000000"/><text fill="#000000" font-family="sans-serif" font-size="14" lengthAdjust="spacing" textLength="142" x="36" y="28.291">synchronous_factory</text><line style="stroke:#181818;stroke-width:0.5;" x1="8" x2="180" y1="39" y2="39"/><line style="stroke:#181818;stroke-width:0.5;" x1="8" x2="180" y1="47" y2="47"/><text fill="#000000" font-family="sans-serif" font-size="14" lengthAdjust="spacing" textLength="55" x="13" y="64.5352">Create()</text></g><!--class sink--><g id="elem_sink"><rect fill="#F1F1F1" height="48" id="sink" rx="2.5" ry="2.5" style="stroke:#181818;stroke-width:0.5;" width="60" x="216" y="15.25"/><ellipse cx="231" cy="31.25" fill="#ADD1B2" rx="11" ry="11" style="stroke:#181818;stroke-width:1.0;"/><path d="M233.4731,37.3931 Q232.8921,37.6919 232.2529,37.8413 Q231.6138,37.9907 230.9082,37.9907 Q228.4014,37.9907 227.0815,36.3389 Q225.7617,34.687 225.7617,31.5659 Q225.7617,28.4365 227.0815,26.7847 Q228.4014,25.1328 230.9082,25.1328 Q231.6138,25.1328 232.2612,25.2822 Q232.9087,25.4316 233.4731,25.7305 L233.4731,28.4531 Q232.8423,27.8721 232.2488,27.6023 Q231.6553,27.3325 231.0244,27.3325 Q229.6797,27.3325 228.9949,28.3992 Q228.3101,29.4658 228.3101,31.5659 Q228.3101,33.6577 228.9949,34.7244 Q229.6797,35.791 231.0244,35.791 Q231.6553,35.791 232.2488,35.5212 Q232.8423,35.2515 233.4731,34.6704 Z " fill="#000000"/><text fill="#000000" font-family="sans-serif" font-size="14" lengthAdjust="spacing" textLength="28" x="245" y="36.541">sink</text><line style="stroke:#181818;stroke-width:0.5;" x1="217" x2="275" y1="47.25" y2="47.25"/><line style="stroke:#181818;stroke-width:0.5;" x1="217" x2="275" y1="55.25" y2="55.25"/></g><!--class backtracer--><g id="elem_backtracer"><rect fill="#F1F1F1" height="48" id="backtracer" rx="2.5" ry="2.5" style="stroke:#181818;stroke-width:0.5;" width="104" x="311" y="15.25"/><ellipse cx="326" cy="31.25" fill="#ADD1B2" rx="11" ry="11" style="stroke:#181818;stroke-width:1.0;"/><path d="M328.4731,37.3931 Q327.8921,37.6919 327.2529,37.8413 Q326.6138,37.9907 325.9082,37.9907 Q323.4014,37.9907 322.0815,36.3389 Q320.7617,34.687 320.7617,31.5659 Q320.7617,28.4365 322.0815,26.7847 Q323.4014,25.1328 325.9082,25.1328 Q326.6138,25.1328 327.2612,25.2822 Q327.9087,25.4316 328.4731,25.7305 L328.4731,28.4531 Q327.8423,27.8721 327.2488,27.6023 Q326.6553,27.3325 326.0244,27.3325 Q324.6797,27.3325 323.9949,28.3992 Q323.3101,29.4658 323.3101,31.5659 Q323.3101,33.6577 323.9949,34.7244 Q324.6797,35.791 326.0244,35.791 Q326.6553,35.791 327.2488,35.5212 Q327.8423,35.2515 328.4731,34.6704 Z " fill="#000000"/><text fill="#000000" font-family="sans-serif" font-size="14" lengthAdjust="spacing" textLength="72" x="340" y="36.541">backtracer</text><line style="stroke:#181818;stroke-width:0.5;" x1="312" x2="414" y1="47.25" y2="47.25"/><line style="stroke:#181818;stroke-width:0.5;" x1="312" x2="414" y1="55.25" y2="55.25"/></g><!--class registry--><g id="elem_registry"><rect fill="#F1F1F1" height="48" id="registry" rx="2.5" ry="2.5" style="stroke:#181818;stroke-width:0.5;" width="84" x="450" y="15.25"/><ellipse cx="465" cy="31.25" fill="#ADD1B2" rx="11" ry="11" style="stroke:#181818;stroke-width:1.0;"/><path d="M467.4731,37.3931 Q466.8921,37.6919 466.2529,37.8413 Q465.6138,37.9907 464.9082,37.9907 Q462.4014,37.9907 461.0815,36.3389 Q459.7617,34.687 459.7617,31.5659 Q459.7617,28.4365 461.0815,26.7847 Q462.4014,25.1328 464.9082,25.1328 Q465.6138,25.1328 466.2612,25.2822 Q466.9087,25.4316 467.4731,25.7305 L467.4731,28.4531 Q466.8423,27.8721 466.2488,27.6023 Q465.6553,27.3325 465.0244,27.3325 Q463.6797,27.3325 462.9949,28.3992 Q462.3101,29.4658 462.3101,31.5659 Q462.3101,33.6577 462.9949,34.7244 Q463.6797,35.791 465.0244,35.791 Q465.6553,35.791 466.2488,35.5212 Q466.8423,35.2515 467.4731,34.6704 Z " fill="#000000"/><text fill="#000000" font-family="sans-serif" font-size="14" lengthAdjust="spacing" textLength="52" x="479" y="36.541">registry</text><line style="stroke:#181818;stroke-width:0.5;" x1="451" x2="533" y1="47.25" y2="47.25"/><line style="stroke:#181818;stroke-width:0.5;" x1="451" x2="533" y1="55.25" y2="55.25"/></g><!--reverse link logger to async_logger--><g id="link_logger_async_logger"><path codeLine="2" d="M304,197.75 C304,215.43 304,221.62 304,239.28 " fill="none" id="logger-backto-async_logger" style="stroke:#181818;stroke-width:1.0;"/><polygon fill="none" points="304,179.75,298,197.75,310,197.75,304,179.75" style="stroke:#181818;stroke-width:1.0;"/></g><!--reverse link synchronous_factory to logger--><g id="link_synchronous_factory_logger"><path codeLine="4" d="M162.7613,77.6541 C198.8113,97.2641 233.57,116.17 265.26,133.41 " fill="none" id="synchronous_factory-backto-logger" style="stroke:#181818;stroke-width:1.0;"/><polygon fill="#181818" points="152.22,71.92,155.5793,78.3008,162.7613,77.6541,159.402,71.2733,152.22,71.92" style="stroke:#181818;stroke-width:1.0;"/></g><!--link sink to logger--><g id="link_sink_logger"><path codeLine="6" d="M257.88,63.64 C267.89,83.36 276.6962,100.7207 286.7062,120.4307 " fill="none" id="sink-to-logger" style="stroke:#181818;stroke-width:1.0;"/><polygon fill="#181818" points="292.14,131.13,292.9895,123.9691,286.7062,120.4307,285.8567,127.5916,292.14,131.13" style="stroke:#181818;stroke-width:1.0;"/></g><!--link backtracer to logger--><g id="link_backtracer_logger"><path codeLine="8" d="M350.92,63.64 C340.74,83.36 331.7425,100.7559 321.5725,120.4659 " fill="none" id="backtracer-to-logger" style="stroke:#181818;stroke-width:1.0;"/><polygon fill="#181818" points="316.07,131.13,322.3759,127.6321,321.5725,120.4659,315.2665,123.9638,316.07,131.13" style="stroke:#181818;stroke-width:1.0;"/></g><!--reverse link registry to logger--><g id="link_registry_logger"><path codeLine="10" d="M443.246,69.8733 C410.806,89.5933 374.87,111.42 342.45,131.13 " fill="none" id="registry-backto-logger" style="stroke:#181818;stroke-width:1.0;"/><polygon fill="#181818" points="453.5,63.64,446.2952,63.3387,443.246,69.8733,450.4508,70.1747,453.5,63.64" style="stroke:#181818;stroke-width:1.0;"/></g><!--SRC=[oybFJqyjKh2fqTLLI2okp4kEpm6BS761E1b5-NdvfSNnQOd99Vb5bGfQG5Lm-SoyR0LTNIsuG59YSdP9KM8oq3XauQBKzCpY4dJDM0otKd0kIaqiITNGv080]--></g></svg>